<svg width="24" height="24" viewBox="0 0 24 24" fill="none" xmlns="http://www.w3.org/2000/svg">
    <path d="M7.33898 10.085L12 5.424L16.6631 10.087L19.3751 7.37501L12 0L4.62718 7.3728L7.33898 10.085ZM0 12L2.71209 9.28752L5.42398 11.9994L2.71189 14.7115L0 12ZM7.33898 13.9153L12 18.576L16.663 13.9131L19.3765 16.6236L19.3751 16.6251L12 24L4.62718 16.6272L4.62334 16.6234L7.33898 13.9153ZM18.5759 12.0012L21.288 9.28906L23.9999 12.001L21.2879 14.7131L18.5759 12.0012Z" fill="#FFCB1F"/>
    <path d="M14.751 11.999H14.7522L12.0004 9.24707L9.96649 11.2805L9.73283 11.5142L9.25091 11.9962L9.24707 12L9.25091 12.0039L12.0004 14.7538L14.7524 12.0019L14.7537 12.0004L14.7512 11.999" fill="#FFCB1F"/>
</svg>
