<svg width="24" height="24" viewBox="0 0 24 24" fill="none" xmlns="http://www.w3.org/2000/svg">
    <path d="M12 24C18.6274 24 24 18.6274 24 12C24 5.37258 18.6274 0 12 0C5.37258 0 0 5.37258 0 12C0 18.6274 5.37258 24 12 24Z" fill="black"/>
    <g clip-path="url(#clip0_4785_3305)">
        <path d="M7.4633 14.8318C7.54951 14.7456 7.66805 14.6953 7.79377 14.6953H19.195C19.4034 14.6953 19.5076 14.9468 19.3603 15.094L17.108 17.3463C17.0218 17.4325 16.9033 17.4828 16.7776 17.4828H5.3763C5.16796 17.4828 5.06379 17.2313 5.21106 17.0841L7.4633 14.8318Z" fill="url(#paint0_linear_4785_3305)"/>
        <path d="M7.46232 6.42263C7.55213 6.33642 7.67066 6.28613 7.79279 6.28613H19.1941C19.4024 6.28613 19.5066 6.53758 19.3593 6.68485L17.1071 8.93709C17.0209 9.0233 16.9023 9.07359 16.7766 9.07359H5.37532C5.16698 9.07359 5.06281 8.82214 5.21009 8.67487L7.46232 6.42263Z" fill="url(#paint1_linear_4785_3305)"/>
        <path d="M17.108 10.6004C17.0218 10.5142 16.9033 10.4639 16.7776 10.4639H5.3763C5.16796 10.4639 5.06379 10.7153 5.21106 10.8626L7.4633 13.1148C7.54951 13.201 7.66805 13.2513 7.79377 13.2513H19.195C19.4034 13.2513 19.5076 12.9999 19.3603 12.8526L17.108 10.6004Z" fill="url(#paint2_linear_4785_3305)"/>
    </g>
    <defs>
        <linearGradient id="paint0_linear_4785_3305" x1="18.1059" y1="4.9408" x2="10.2153" y2="20.0545" gradientUnits="userSpaceOnUse">
            <stop stop-color="#00FFA3"/>
            <stop offset="1" stop-color="#DC1FFF"/>
        </linearGradient>
        <linearGradient id="paint1_linear_4785_3305" x1="14.6547" y1="3.13942" x2="6.76413" y2="18.2531" gradientUnits="userSpaceOnUse">
            <stop stop-color="#00FFA3"/>
            <stop offset="1" stop-color="#DC1FFF"/>
        </linearGradient>
        <linearGradient id="paint2_linear_4785_3305" x1="16.3698" y1="4.03448" x2="8.47923" y2="19.1481" gradientUnits="userSpaceOnUse">
            <stop stop-color="#00FFA3"/>
            <stop offset="1" stop-color="#DC1FFF"/>
        </linearGradient>
        <clipPath id="clip0_4785_3305">
            <rect width="14.2857" height="11.1965" fill="white" transform="translate(5.14282 6.28613)"/>
        </clipPath>
    </defs>
</svg>
