<svg width="24" height="23" viewBox="0 0 24 23" fill="none" xmlns="http://www.w3.org/2000/svg">
    <path d="M5.91572 9.90084H5.42853V8.81638H5.91572C6.20028 8.81638 6.39791 8.83389 6.50798 8.86891C6.61805 8.90393 6.70373 8.96335 6.76127 9.04653C6.81944 9.12908 6.85008 9.22915 6.85008 9.3461C6.85008 9.45805 6.81818 9.55811 6.75815 9.64442C6.69498 9.7301 6.6043 9.79451 6.48297 9.83704C6.35914 9.87957 6.17151 9.90084 5.91572 9.90084ZM6.56677 10.6257C6.44357 10.5788 6.25657 10.555 6.00453 10.555H5.42853V11.5181C5.43041 11.6551 5.43541 11.7345 5.44292 11.7577C5.45417 11.7877 5.47106 11.809 5.49545 11.8202C5.51984 11.8327 5.58676 11.8377 5.69433 11.8377H6.01954C6.20779 11.8377 6.36414 11.8202 6.48985 11.7852C6.61243 11.7502 6.71812 11.6776 6.80505 11.5663C6.89261 11.4556 6.93701 11.323 6.93701 11.1673C6.93701 11.036 6.90512 10.9246 6.84508 10.8321C6.78066 10.7414 6.6906 10.6713 6.56677 10.6257ZM10.6926 10.3236C10.6926 12.9459 8.56745 15.0705 5.94512 15.0705C3.32404 15.0705 1.19828 12.9466 1.19828 10.3236C1.19828 7.70253 3.32279 5.57676 5.94512 5.57676C8.56745 5.57676 10.6926 7.70253 10.6926 10.3236ZM8.09151 11.2842C8.09151 11.0872 8.04461 10.9077 7.94955 10.7476C7.85573 10.5869 7.7294 10.4625 7.57117 10.3724C7.46048 10.3086 7.301 10.2498 7.09211 10.1973C7.28724 10.131 7.44359 10.0478 7.56117 9.94711C7.67874 9.8458 7.7713 9.72947 7.83384 9.59814C7.89639 9.46618 7.9264 9.32671 7.9264 9.18036C7.9264 8.97836 7.86762 8.79261 7.75067 8.62313C7.63121 8.45427 7.46048 8.32481 7.24033 8.23412C7.15403 8.1991 7.05209 8.17283 6.94139 8.15157V7.36668H6.18715V8.09841H5.70371V7.36668H4.95134V8.09841H3.8006V8.71381H3.97634C4.09391 8.71381 4.17146 8.72444 4.21399 8.74571C4.25464 8.76634 4.28404 8.79574 4.30155 8.83139C4.31843 8.86766 4.32719 8.95209 4.32719 9.08343V11.565C4.32719 11.6951 4.31843 11.7777 4.30155 11.8152C4.28529 11.854 4.25589 11.8803 4.21399 11.9015C4.17334 11.9215 4.09516 11.9322 3.97634 11.9322H3.8006V12.5469H4.95134V13.2787H5.70371V12.5469H6.13274C6.15088 12.5469 6.17089 12.5469 6.1884 12.5469V13.2787H6.94264V12.4838C7.06835 12.4594 7.18092 12.4287 7.27473 12.3918C7.5349 12.2868 7.73628 12.1367 7.877 11.9359C8.01959 11.7383 8.09151 11.5206 8.09151 11.2842ZM24.0006 17.7278C24.0006 20.5365 21.7172 22.8224 18.9073 22.8224C16.0998 22.8224 13.8134 20.5371 13.8134 17.7278C13.8134 17.4651 13.839 17.2075 13.8784 16.9561L10.3542 14.3406L10.4136 14.2343C9.32294 15.4782 7.7269 16.2706 5.94512 16.2706C2.66736 16.2706 0 13.602 0 10.3242C0 7.04585 2.66736 4.37911 5.94512 4.37911C7.8057 4.37911 9.46741 5.23904 10.5575 6.58117L14.5663 4.24277C14.4381 3.90004 14.3575 3.53356 14.3575 3.14643C14.3575 1.41155 15.7696 0 17.5039 0C19.2381 0 20.6503 1.41155 20.6503 3.14643C20.6503 4.88194 19.2381 6.29348 17.5039 6.29348C16.467 6.29348 15.5532 5.78252 14.9791 5.00577L11.3574 7.88077C11.697 8.6275 11.8902 9.45367 11.8902 10.3255C11.8902 11.4099 11.5932 12.4231 11.0847 13.3006L14.6858 14.8816C15.602 13.527 17.1518 12.6351 18.9073 12.6351C21.716 12.6345 24.0006 14.9179 24.0006 17.7278ZM14.6971 3.14518C14.6971 4.69619 15.9541 5.95263 17.5039 5.95263C19.0543 5.95263 20.3095 4.69619 20.3095 3.14518C20.3095 1.59542 19.053 0.338346 17.5039 0.338346C15.9541 0.33772 14.6971 1.59542 14.6971 3.14518ZM11.2492 10.3236C11.2492 7.3942 8.87515 5.01953 5.94637 5.01953C3.01696 5.01953 0.642918 7.3942 0.642918 10.3236C0.642918 13.2543 3.01759 15.6271 5.94637 15.6271C8.87515 15.6271 11.2492 13.2536 11.2492 10.3236ZM23.4509 17.7278C23.4509 15.2181 21.4183 13.1842 18.9073 13.1842C16.3969 13.1842 14.3631 15.2181 14.3631 17.7278C14.3631 20.2395 16.3969 22.2733 18.9073 22.2733C21.4183 22.2727 23.4509 20.2363 23.4509 17.7278ZM19.367 17.3113C19.4708 17.2738 19.549 17.22 19.6027 17.1456C19.6553 17.0724 19.6834 16.9855 19.6834 16.8891C19.6834 16.7897 19.6565 16.7034 19.6065 16.6334C19.5577 16.5627 19.4845 16.5114 19.3889 16.4808C19.295 16.4514 19.1249 16.437 18.881 16.437H18.4633V17.3651H18.881C19.1012 17.3651 19.2619 17.3469 19.367 17.3113ZM19.4401 17.9867C19.3338 17.9467 19.1725 17.9248 18.958 17.9248H18.4645V18.7497C18.4658 18.8673 18.4701 18.9361 18.4776 18.9549C18.4864 18.9805 18.5008 18.9974 18.5214 19.0074C18.5421 19.018 18.5996 19.023 18.6909 19.023H18.9686C19.1299 19.023 19.265 19.0074 19.3726 18.978C19.4777 18.9474 19.5677 18.8861 19.644 18.7904C19.7172 18.6959 19.7553 18.5821 19.7553 18.4489C19.7553 18.3363 19.7297 18.2413 19.6772 18.1618C19.6234 18.0849 19.5452 18.0261 19.4401 17.9867ZM22.9737 17.7278C22.9737 19.9743 21.1525 21.7955 18.9073 21.7955C16.6608 21.7955 14.8397 19.9743 14.8397 17.7278C14.8397 15.482 16.6608 13.6614 18.9073 13.6614C21.1525 13.6614 22.9737 15.4807 22.9737 17.7278ZM20.7447 18.5515C20.7447 18.382 20.706 18.2281 20.6253 18.0918C20.5446 17.953 20.4364 17.8466 20.3001 17.7697C20.205 17.7147 20.0681 17.6646 19.8886 17.6196C20.0562 17.5621 20.1894 17.492 20.2919 17.4045C20.3945 17.3169 20.4714 17.2187 20.5252 17.1055C20.579 16.9917 20.6059 16.8723 20.6059 16.7484C20.6059 16.5752 20.5552 16.4151 20.4552 16.27C20.3526 16.1268 20.2069 16.0148 20.0168 15.9366C19.9442 15.9073 19.8554 15.8841 19.7622 15.8666V15.1949H19.1162V15.8216H18.7022V15.1949H18.0574V15.8216H17.073V16.3488H17.2231C17.3219 16.3488 17.3919 16.36 17.4257 16.3769C17.4626 16.3932 17.487 16.4188 17.5001 16.4501C17.5151 16.4808 17.5233 16.5539 17.5233 16.6665V18.791C17.5233 18.903 17.5151 18.9743 17.5001 19.0068C17.487 19.0387 17.4614 19.0631 17.4257 19.0799C17.3901 19.0975 17.3219 19.1068 17.2231 19.1068H17.073V19.6334H18.0574V20.2601H18.7022V19.6334H19.0687C19.0855 19.6334 19.1018 19.6334 19.1162 19.6334V20.2613H19.7622V19.5796C19.8698 19.559 19.9655 19.5321 20.0462 19.5002C20.2694 19.4102 20.4427 19.2807 20.5627 19.1106C20.6835 18.9399 20.7447 18.7541 20.7447 18.5515ZM17.7884 2.88813C17.8535 2.86562 17.9029 2.83122 17.9342 2.78619C17.9667 2.74116 17.9823 2.68738 17.9823 2.62859C17.9823 2.56667 17.9667 2.51414 17.936 2.47036C17.9054 2.42596 17.8604 2.39469 17.8016 2.37655C17.7428 2.35841 17.6377 2.34903 17.4876 2.34903H17.23V2.92316H17.4876C17.624 2.92128 17.724 2.91065 17.7884 2.88813ZM17.2669 3.93569C17.28 3.94257 17.3144 3.9457 17.3719 3.9457H17.5427C17.6427 3.9457 17.7259 3.93569 17.7903 3.91756C17.8554 3.89942 17.9123 3.86064 17.9579 3.80186C18.0042 3.74307 18.0273 3.67302 18.0273 3.59109C18.0273 3.52167 18.0117 3.46226 17.9786 3.41348C17.9454 3.36532 17.8979 3.32905 17.8335 3.30403C17.7684 3.27901 17.6684 3.26651 17.5352 3.26651H17.23V3.77559C17.2325 3.84814 17.2337 3.89066 17.2387 3.90255C17.245 3.91943 17.2537 3.93132 17.2669 3.93569ZM14.9929 3.14518C14.9929 1.75802 16.118 0.632913 17.5064 0.632913C18.8929 0.632913 20.018 1.75802 20.018 3.14518C20.018 4.53358 18.8929 5.65807 17.5064 5.65807C16.1174 5.65744 14.9929 4.53296 14.9929 3.14518ZM16.3681 4.32282H16.9779V4.71057H17.3782V4.32282H17.6033C17.6152 4.32282 17.6227 4.32282 17.6327 4.32282V4.71057H18.033V4.28967C18.0993 4.27654 18.1587 4.26028 18.2081 4.23964C18.3469 4.18461 18.4533 4.10518 18.5277 3.99886C18.6033 3.89442 18.6421 3.77934 18.6421 3.65426C18.6421 3.54982 18.6177 3.45538 18.5677 3.37032C18.5189 3.28464 18.4508 3.21898 18.3688 3.17207C18.3088 3.1383 18.2256 3.10703 18.1149 3.07951C18.2175 3.04386 18.3007 3.00008 18.3626 2.94692C18.4257 2.89376 18.4739 2.83185 18.5058 2.76243C18.5396 2.69301 18.5558 2.61921 18.5558 2.54103C18.5558 2.43409 18.5239 2.3359 18.4626 2.24584C18.3982 2.15641 18.3088 2.08824 18.1906 2.04008C18.1462 2.02194 18.0918 2.00756 18.033 1.99693V1.58166H17.6327V1.96878H17.3782V1.58166H16.9779V1.96878H16.3681V2.294H16.4607C16.5245 2.294 16.5645 2.30025 16.5864 2.31151C16.6083 2.32277 16.6246 2.33778 16.6327 2.35716C16.6427 2.37655 16.6465 2.42095 16.6465 2.49037V3.80373C16.6465 3.87253 16.6408 3.91631 16.6327 3.93632C16.6233 3.95633 16.6083 3.97134 16.5864 3.98197C16.5645 3.9926 16.522 3.99823 16.4607 3.99823H16.3681V4.32282Z" fill="#489DFE"/>
</svg>
