<svg width="14" height="14" viewBox="0 0 14 14" fill="none" xmlns="http://www.w3.org/2000/svg">
<path d="M12.2408 0.308147C12.6433 -0.102503 13.2957 -0.102504 13.6982 0.308147C14.1006 0.718797 14.1006 1.38459 13.6982 1.79524L2.03953 13.692C1.6371 14.1027 0.984627 14.1027 0.582196 13.692C0.179766 13.2814 0.179766 12.6156 0.582196 12.2049L12.2408 0.308147Z" fill="white"/>
<path d="M0.301823 1.79508C-0.100608 1.38443 -0.100608 0.718638 0.301823 0.307988C0.704254 -0.102663 1.35672 -0.102663 1.75915 0.307988L13.4178 12.2048C13.8202 12.6154 13.8202 13.2812 13.4178 13.6919C13.0154 14.1025 12.3629 14.1025 11.9605 13.6919L0.301823 1.79508Z" fill="white"/>
</svg>
