<svg width="22" height="22" viewBox="0 0 22 22" fill="none" xmlns="http://www.w3.org/2000/svg">
    <path fill-rule="evenodd" clip-rule="evenodd" d="M18.7669 13.081C18.3948 13.3162 17.9567 13.3453 17.6237 13.1575C17.2007 12.9186 16.9681 12.3593 16.9681 11.5814V9.25398C16.9681 8.13008 16.5237 7.33034 15.7807 7.11441C14.5215 6.74758 13.5745 8.28826 13.2186 8.86686L10.9979 12.4675V8.0666C10.9729 7.05405 10.6441 6.44839 10.0197 6.26576C9.60654 6.14504 8.9884 6.19343 8.38794 7.11232L3.41259 15.1014C2.74651 13.8369 2.39928 12.4289 2.40108 10.9997C2.40108 6.18719 6.25773 2.27226 10.9979 2.27226C15.7381 2.27226 19.5942 6.18719 19.5942 10.9997C19.5942 11.008 19.5963 11.0153 19.5968 11.0231C19.5968 11.0314 19.5952 11.0387 19.5957 11.047C19.6405 11.9789 19.3387 12.7199 18.7669 13.081ZM21.5043 11.0002V10.9757L21.5038 10.9518C21.4772 5.09086 16.7751 0.333008 10.9974 0.333008C5.20459 0.333008 0.490967 5.11792 0.490967 10.9997C0.490967 16.8809 5.20459 21.6663 10.9979 21.6663C13.6562 21.6663 16.1933 20.6559 18.1409 18.8217C18.528 18.4575 18.5509 17.844 18.1919 17.4517C18.1074 17.3585 18.0052 17.2831 17.8912 17.23C17.7772 17.1768 17.6537 17.1469 17.528 17.1421C17.4023 17.1372 17.2769 17.1575 17.1591 17.2017C17.0414 17.246 16.9336 17.3133 16.8422 17.3997C15.2636 18.8946 13.172 19.7275 10.9979 19.7271C8.45975 19.7271 6.17604 18.6037 4.60102 16.8221L9.08778 9.61769V12.9389C9.08778 14.5342 9.70645 15.0499 10.2252 15.2008C10.7445 15.3517 11.538 15.2486 12.371 13.8958L14.8389 9.89502C14.918 9.76598 14.9909 9.65463 15.0575 9.55837V11.5814C15.0575 13.0726 15.6548 14.2652 16.696 14.8527C17.6346 15.3824 18.8147 15.3345 19.7763 14.7278C20.9418 13.9915 21.5699 12.6351 21.5043 11.0002Z" fill="white"/>
</svg>
