<svg width="25" height="25" viewBox="0 0 25 25" fill="none" xmlns="http://www.w3.org/2000/svg">
<path d="M12.5 24.1111C18.9126 24.1111 24.1111 18.9126 24.1111 12.5C24.1111 6.08736 18.9126 0.888889 12.5 0.888889C6.08736 0.888889 0.888889 6.08736 0.888889 12.5C0.888889 18.9126 6.08736 24.1111 12.5 24.1111ZM24.5 12.5C24.5 19.1274 19.1274 24.5 12.5 24.5C5.87258 24.5 0.5 19.1274 0.5 12.5C0.5 5.87258 5.87258 0.5 12.5 0.5C19.1274 0.5 24.5 5.87258 24.5 12.5Z" stroke="#8B8CA7"/>
<rect x="12.25" y="11.25" width="0.5" height="7.5" fill="#8B8CA7" stroke="#8B8CA7" stroke-width="0.5"/>
<rect x="12.25" y="7.25" width="0.5" height="1.5" fill="#8B8CA7" stroke="#8B8CA7" stroke-width="0.5"/>
</svg>
