<svg width="40" height="40" viewBox="0 0 40 40" fill="none" xmlns="http://www.w3.org/2000/svg">
    <path d="M35.0172 26.418L32.9966 32.9875L29.03 31.9443L35.0172 26.418Z" fill="#E4761B" stroke="#E4761B" stroke-width="0.190386"/>
    <path d="M29.03 31.9443L32.8558 26.9037L35.0172 26.418L29.03 31.9443Z" fill="#E4761B" stroke="#E4761B" stroke-width="0.190386"/>
    <path d="M32.0442 21.4655L35.0171 26.4185L32.8558 26.9043L32.0442 21.4655ZM32.0442 21.4655L33.9571 20.1914L35.0171 26.4185L32.0442 21.4655Z" fill="#F6851B" stroke="#F6851B" stroke-width="0.190386"/>
    <path d="M29.6097 17.7226L35.1083 15.5566L34.835 16.7431L29.6097 17.7226ZM34.6611 18.1685L29.6097 17.7226L34.835 16.7431L34.6611 18.1685Z" fill="#763D16" stroke="#763D16" stroke-width="0.190386"/>
    <path d="M34.6611 18.1685L33.9573 20.1911L29.6097 17.7226L34.6611 18.1685ZM35.7625 16.0583L34.835 16.7431L35.1083 15.5566L35.7625 16.0583ZM34.6611 18.1685L34.835 16.7431L35.5721 17.3324L34.6611 18.1685Z" fill="#763D16" stroke="#763D16" stroke-width="0.190386"/>
    <path d="M24.7653 30.3438L26.14 30.7658L29.0301 31.9443L24.7653 30.3438Z" fill="#E2761B" stroke="#E2761B" stroke-width="0.190386"/>
    <path d="M33.9574 20.1912L34.6613 18.1686L35.2658 18.6145L33.9574 20.1912ZM33.9574 20.1912L28.2517 18.3836L29.6098 17.7227L33.9574 20.1912Z" fill="#763D16" stroke="#763D16" stroke-width="0.190386"/>
    <path d="M30.9679 11.5195L29.6098 17.7227L28.2517 18.3837L30.9679 11.5195Z" fill="#763D16" stroke="#763D16" stroke-width="0.190386"/>
    <path d="M35.1083 15.5568L29.6097 17.7227L30.9678 11.5195L35.1083 15.5568Z" fill="#763D16" stroke="#763D16" stroke-width="0.190386"/>
    <path d="M30.9677 11.5199L36.7064 10.8828L35.1082 15.5571L30.9677 11.5199Z" fill="#763D16" stroke="#763D16" stroke-width="0.190386"/>
    <path d="M33.9574 20.1924L32.0445 21.4665L28.2517 18.3848L33.9574 20.1924Z" fill="#F6851B" stroke="#F6851B" stroke-width="0.190386"/>
    <path d="M36.458 6.41602L36.7064 10.8833L30.9677 11.5203L36.458 6.41602Z" fill="#763D16" stroke="#763D16" stroke-width="0.190386"/>
    <path d="M36.4581 6.41602L24.9888 14.4348L24.8398 8.99605L36.4581 6.41602Z" fill="#E2761B" stroke="#E2761B" stroke-width="0.190386"/>
    <path d="M16.3104 8.3418L24.8399 8.99477L24.989 14.4335L16.3104 8.3418Z" fill="#F6851B" stroke="#F6851B" stroke-width="0.190386"/>
    <path d="M28.2516 18.3837L24.9889 14.434L30.9678 11.5195L28.2516 18.3837Z" fill="#763D16" stroke="#763D16" stroke-width="0.190386"/>
    <path d="M28.2516 18.3848L32.0443 21.4665L26.7196 22.0318L28.2516 18.3848Z" fill="#E4761B" stroke="#E4761B" stroke-width="0.190386"/>
    <path d="M26.7196 22.0303L24.9889 14.4336L28.2516 18.3833L26.7196 22.0303Z" fill="#E4761B" stroke="#E4761B" stroke-width="0.190386"/>
    <path d="M30.9678 11.5203L24.9889 14.4348L36.4581 6.41602L30.9678 11.5203Z" fill="#763D16" stroke="#763D16" stroke-width="0.190386"/>
    <path d="M16.3849 31.8182L19.0928 34.5336L15.4077 31.3086L16.3849 31.8182Z" fill="#C0AD9E" stroke="#C0AD9E" stroke-width="0.190386"/>
    <path d="M29.03 31.9449L30.3135 27.2547L32.8558 26.9043L29.03 31.9449Z" fill="#CD6116" stroke="#CD6116" stroke-width="0.190386"/>
    <path d="M5.40411 18.7497L10.0912 14.0117L6.00863 18.1844L5.40411 18.7497Z" fill="#E2761B" stroke="#E2761B" stroke-width="0.190386"/>
    <path d="M32.856 26.9037L30.3137 27.2541L32.0444 21.4649L32.856 26.9037ZM24.989 14.4335L20.4261 14.2902L16.3104 8.3418L24.989 14.4335Z" fill="#F6851B" stroke="#F6851B" stroke-width="0.190386"/>
    <path d="M32.0444 21.4668L30.3136 27.2559L30.1729 24.4291L32.0444 21.4668Z" fill="#E4751F" stroke="#E4751F" stroke-width="0.190386"/>
    <path d="M26.7196 22.0322L32.0443 21.4668L30.1728 24.4291L26.7196 22.0322Z" fill="#CD6116" stroke="#CD6116" stroke-width="0.190386"/>
    <path d="M20.4259 14.291L24.9888 14.4343L26.7195 22.0311L20.4259 14.291Z" fill="#F6851B" stroke="#F6851B" stroke-width="0.190386"/>
    <path d="M20.426 14.2911L8.1121 3.33398L16.3103 8.34274L20.426 14.2911ZM16.302 33.4821L5.60294 36.6673L3.46643 28.8237L16.302 33.4821Z" fill="#E4761B" stroke="#E4761B" stroke-width="0.190386"/>
    <path d="M6.99411 20.71L11.0353 17.6602L14.4222 18.4166L6.99411 20.71Z" fill="#763D16" stroke="#763D16" stroke-width="0.190386"/>
    <path d="M14.4221 18.416L11.0352 17.6595L12.8487 10.4609L14.4221 18.416Z" fill="#763D16" stroke="#763D16" stroke-width="0.190386"/>
    <path d="M6.00851 18.1857L11.0351 17.6602L6.99396 20.71L6.00851 18.1857Z" fill="#763D16" stroke="#763D16" stroke-width="0.190386"/>
    <path d="M30.1728 24.4281L28.0859 23.4168L26.7196 22.0312L30.1728 24.4281Z" fill="#CD6116" stroke="#CD6116" stroke-width="0.190386"/>
    <path d="M6.00879 18.1846L5.65271 16.377L11.0354 17.659L6.00879 18.1846Z" fill="#763D16" stroke="#763D16" stroke-width="0.190386"/>
    <path d="M27.6555 25.6935L28.0861 23.416L30.1729 24.4273L27.6555 25.6935Z" fill="#233447" stroke="#233447" stroke-width="0.190386"/>
    <path d="M30.3137 27.2546L27.6555 25.6939L30.1729 24.4277L30.3137 27.2546Z" fill="#F6851B" stroke="#F6851B" stroke-width="0.190386"/>
    <path d="M11.0353 17.6595L5.65258 16.3775L5.21368 14.8565L11.0353 17.6595ZM12.8488 10.4609L11.0353 17.6595L5.21368 14.8565L12.8488 10.4609ZM12.8488 10.4609L20.426 14.2912L14.4222 18.416L12.8488 10.4609Z" fill="#763D16" stroke="#763D16" stroke-width="0.190386"/>
    <path d="M14.4221 18.4159L20.4259 14.291L23.1007 22.1505L14.4221 18.4159ZM23.1007 22.1505L14.8031 21.9833L14.4221 18.4159L23.1007 22.1505Z" fill="#E4761B" stroke="#E4761B" stroke-width="0.190386"/>
    <path d="M6.99411 20.7092L14.4222 18.4159L14.8031 21.9833L6.99411 20.7092ZM26.7196 22.0311L23.1007 22.1505L20.426 14.291L26.7196 22.0311Z" fill="#F6851B" stroke="#F6851B" stroke-width="0.190386"/>
    <path d="M28.0859 23.4168L27.6553 25.6943L26.7196 22.0312L28.0859 23.4168Z" fill="#CD6116" stroke="#CD6116" stroke-width="0.190386"/>
    <path d="M8.11227 3.33398L20.4262 14.2911L12.849 10.4609L8.11227 3.33398Z" fill="#763D16" stroke="#763D16" stroke-width="0.190386"/>
    <path d="M3.46643 28.8242L13.8509 28.4102L16.302 33.4826L3.46643 28.8242Z" fill="#E4761B" stroke="#E4761B" stroke-width="0.190386"/>
    <path d="M16.3021 33.4813L13.8509 28.4088L18.952 28.1699L16.3021 33.4813Z" fill="#CD6116" stroke="#CD6116" stroke-width="0.190386"/>
    <path d="M27.6554 25.6939L30.3136 27.2546L31.7793 30.5752L27.6554 25.6939ZM14.8032 21.9831L3.46643 28.8233L6.99416 20.709L14.8032 21.9831ZM13.8509 28.4093L3.46643 28.8233L14.8032 21.9831L13.8509 28.4093ZM26.7196 22.0309L27.3986 24.4038L24.1194 24.587L26.7196 22.0309ZM24.1194 24.587L23.1008 22.1503L26.7196 22.0309L24.1194 24.587Z" fill="#F6851B" stroke="#F6851B" stroke-width="0.190386"/>
    <path d="M19.0927 34.5335L16.302 33.4824L26.0074 35.0511L19.0927 34.5335Z" fill="#C0AD9E" stroke="#C0AD9E" stroke-width="0.190386"/>
    <path d="M6.99408 20.7098L5.40411 18.7509L6.00863 18.1855L6.99408 20.7098Z" fill="#763D16" stroke="#763D16" stroke-width="0.190386"/>
    <path d="M27.1087 33.8885L26.0074 35.0511L16.302 33.4824L27.1087 33.8885Z" fill="#D7C1B3" stroke="#D7C1B3" stroke-width="0.190386"/>
    <path d="M27.6304 31.0366L16.302 33.4813L18.9519 28.1699L27.6304 31.0366Z" fill="#E4761B" stroke="#E4761B" stroke-width="0.190386"/>
    <path d="M16.302 33.4818L27.6304 31.0371L27.1087 33.8879L16.302 33.4818Z" fill="#D7C1B3" stroke="#D7C1B3" stroke-width="0.190386"/>
    <path d="M5.21362 14.856L4.84097 8.73242L12.8487 10.4604L5.21362 14.856ZM6.0086 18.1846L4.90722 17.1096L5.65251 16.377L6.0086 18.1846Z" fill="#763D16" stroke="#763D16" stroke-width="0.190386"/>
    <path d="M21.2458 23.7271L23.1007 22.1504L22.8358 26.0045L21.2458 23.7271Z" fill="#CD6116" stroke="#CD6116" stroke-width="0.190386"/>
    <path d="M23.1007 22.1504L21.2457 23.7271L18.5461 25.0728L23.1007 22.1504Z" fill="#CD6116" stroke="#CD6116" stroke-width="0.190386"/>
    <path d="M31.7794 30.5747L31.2743 30.2164L27.6555 25.6934L31.7794 30.5747Z" fill="#F6851B" stroke="#F6851B" stroke-width="0.190386"/>
    <path d="M18.5464 25.074L14.8033 21.9844L23.101 22.1516L18.5464 25.074Z" fill="#CD6116" stroke="#CD6116" stroke-width="0.190386"/>
    <path d="M22.8358 26.0045L23.1008 22.1504L24.1193 24.5871L22.8358 26.0045Z" fill="#E4751F" stroke="#E4751F" stroke-width="0.190386"/>
    <path d="M4.543 15.4626L5.21376 14.8574L5.65266 16.3784L4.543 15.4626Z" fill="#763D16" stroke="#763D16" stroke-width="0.190386"/>
    <path d="M22.8357 26.004L18.5461 25.0723L21.2457 23.7266L22.8357 26.004Z" fill="#233447" stroke="#233447" stroke-width="0.190386"/>
    <path d="M12.8487 10.4609L4.84097 8.73293L8.11198 3.33398L12.8487 10.4609Z" fill="#763D16" stroke="#763D16" stroke-width="0.190386"/>
    <path d="M26.0073 35.0508L26.4628 36.2453L19.0927 34.5332L26.0073 35.0508Z" fill="#C0AD9E" stroke="#C0AD9E" stroke-width="0.190386"/>
    <path d="M18.9519 28.1699L18.5461 25.0723L22.8357 26.0039L18.9519 28.1699Z" fill="#F6851B" stroke="#F6851B" stroke-width="0.190386"/>
    <path d="M14.8033 21.9844L18.5464 25.074L18.9521 28.1717L14.8033 21.9844Z" fill="#E4751F" stroke="#E4751F" stroke-width="0.190386"/>
    <path d="M24.1194 24.5883L27.3987 24.4051L31.2742 30.2182L24.1194 24.5883ZM14.8032 21.9844L18.952 28.1717L13.8509 28.4106L14.8032 21.9844Z" fill="#F6851B" stroke="#F6851B" stroke-width="0.190386"/>
    <path d="M24.1193 24.5879L28.1936 30.5522L22.8358 26.0053L24.1193 24.5879Z" fill="#E4751F" stroke="#E4751F" stroke-width="0.190386"/>
    <path d="M22.8358 26.0039L28.1936 30.5508L27.6305 31.0366L22.8358 26.0039Z" fill="#F6851B" stroke="#F6851B" stroke-width="0.190386"/>
    <path d="M27.6305 31.038L18.952 28.1713L22.8358 26.0053L27.6305 31.038ZM31.2742 30.2178L28.1936 30.5522L24.1193 24.5879L31.2742 30.2178Z" fill="#F6851B" stroke="#F6851B" stroke-width="0.190386"/>
    <path d="M32.0859 33.0195L30.7609 35.5757L26.4631 36.2446L32.0859 33.0195ZM26.4631 36.2446L26.0076 35.0501L27.109 33.8875L26.4631 36.2446Z" fill="#C0AD9E" stroke="#C0AD9E" stroke-width="0.190386"/>
    <path d="M27.1088 33.8875L27.9203 33.5769L26.4629 36.2446L27.1088 33.8875ZM26.4629 36.2446L27.9203 33.5769L32.0857 33.0195L26.4629 36.2446Z" fill="#C0AD9E" stroke="#C0AD9E" stroke-width="0.190386"/>
    <path d="M31.2743 30.2168L32.2928 30.814L29.1957 31.1724L31.2743 30.2168Z" fill="#161616" stroke="#161616" stroke-width="0.190386"/>
    <path d="M29.1955 31.1724L28.1935 30.5512L31.2741 30.2168L29.1955 31.1724ZM28.8395 31.6422L32.6073 31.2042L32.0856 33.0198L28.8395 31.6422Z" fill="#161616" stroke="#161616" stroke-width="0.190386"/>
    <path d="M32.0858 33.0193L27.9204 33.5768L28.8396 31.6417L32.0858 33.0193ZM27.9204 33.5768L27.1089 33.8873L27.6306 31.0365L27.9204 33.5768ZM27.6306 31.0365L28.1937 30.5508L29.1957 31.1719L27.6306 31.0365ZM32.2928 30.8136L32.6075 31.2038L28.8396 31.6417L32.2928 30.8136Z" fill="#161616" stroke="#161616" stroke-width="0.190386"/>
    <path d="M28.8394 31.6426L29.1955 31.1728L32.2926 30.8145L28.8394 31.6426ZM27.6304 31.0374L28.8394 31.6426L27.9202 33.5776L27.6304 31.0374Z" fill="#161616" stroke="#161616" stroke-width="0.190386"/>
    <path d="M29.1955 31.1725L28.8394 31.6423L27.6304 31.0371L29.1955 31.1725Z" fill="#161616" stroke="#161616" stroke-width="0.190386"/>
</svg>
