<svg width="862" height="435" viewBox="0 0 862 435" fill="none" xmlns="http://www.w3.org/2000/svg">
<path opacity="0.2" d="M260.631 2.86023L-203.532 180.033C-235.21 192.627 -235.026 210.119 -209.344 217.919L-90.175 254.716L185.548 82.5192C198.585 74.6673 210.497 78.8912 200.706 87.4946L-22.6842 287.057H-22.7366L-22.6842 287.083L-30.9046 408.67C-18.862 408.67 -13.5476 403.202 -6.79323 396.75L51.0897 341.035L171.489 429.064C193.69 441.166 209.633 434.947 215.157 408.722L294.193 40.0206C302.282 7.91342 281.81 -6.62422 260.631 2.86023Z" fill="#46475D"/>
<path d="M584.178 145.46L509.915 173.971C504.846 175.997 504.876 178.812 508.985 180.067L528.051 185.989L572.165 158.279C574.251 157.015 576.157 157.695 574.591 159.08L538.849 191.193H538.841L538.849 191.197L537.534 210.763C539.461 210.763 540.311 209.883 541.392 208.845L550.653 199.879L569.916 214.045C573.468 215.992 576.019 214.991 576.903 210.771L589.548 151.44C590.842 146.273 587.567 143.934 584.178 145.46Z" fill="#46475D"/>
<path d="M811.806 198.518C811.825 199.07 812.287 199.503 812.839 199.484L821.834 199.186C822.386 199.168 822.819 198.705 822.8 198.153C822.782 197.601 822.32 197.169 821.768 197.187L813.772 197.452L813.507 189.457C813.489 188.905 813.026 188.472 812.474 188.49C811.922 188.509 811.49 188.971 811.508 189.523L811.806 198.518ZM763.483 44.0513C804.162 68.6372 830.228 92.1939 839.2 116.959C848.115 141.57 840.237 167.708 812.076 197.802L813.536 199.168C841.945 168.81 850.361 141.9 841.08 116.278C831.854 90.8099 805.233 66.9478 764.518 42.3396L763.483 44.0513Z" fill="#46475D"/>
</svg>
