<svg width="817" height="179" viewBox="0 0 817 179" fill="none" xmlns="http://www.w3.org/2000/svg">
<g opacity="0.01">
<path d="M0.449585 65.475C0.899223 57.075 2.69787 49.2 5.84534 41.85C9.14268 34.35 13.7139 27.9 19.5592 22.5C25.5544 16.95 32.7485 12.6 41.1417 9.45C49.6848 6.15 59.5023 4.5 70.5934 4.5C81.5346 4.5 91.2766 6.15 99.8197 9.45C108.363 12.6 115.557 16.95 121.402 22.5C127.398 27.9 131.969 34.35 135.116 41.85C138.414 49.2 140.287 57.075 140.737 65.475C141.036 71.925 141.186 78.675 141.186 85.725C141.186 92.775 141.036 99.375 140.737 105.525C140.287 113.475 138.638 120.9 135.791 127.8C133.093 134.7 129.196 140.85 124.1 146.25L141.861 171.9C142.011 172.2 142.161 172.5 142.31 172.8C142.46 173.25 142.535 173.625 142.535 173.925C142.835 175.275 142.46 176.4 141.411 177.3C140.512 178.35 139.388 178.875 138.039 178.875H106.339C103.492 178.875 101.393 178.2 100.045 176.85C98.6956 175.65 97.6463 174.6 96.8969 173.7L90.6019 164.25C87.4545 165 84.232 165.525 80.9347 165.825C77.6373 166.275 74.1905 166.5 70.5934 166.5C59.5023 166.5 49.6848 164.925 41.1417 161.775C32.7485 158.625 25.5544 154.275 19.5592 148.725C13.7139 143.175 9.14268 136.725 5.84534 129.375C2.69787 121.875 0.899223 113.925 0.449585 105.525C0.149826 99.375 0 92.775 0 85.725C0 78.675 0.149826 71.925 0.449585 65.475ZM99.1454 104.4C99.2953 101.7 99.445 98.7 99.5948 95.4C99.7447 92.1 99.8197 88.725 99.8197 85.275C99.8197 81.825 99.7447 78.525 99.5948 75.375C99.445 72.075 99.2953 69.15 99.1454 66.6C98.8456 62.85 98.0212 59.4 96.6722 56.25C95.4732 53.1 93.6746 50.4 91.2765 48.15C89.0283 45.75 86.1807 43.875 82.7335 42.525C79.2863 41.175 75.2396 40.5 70.5934 40.5C65.9471 40.5 61.9 41.175 58.4528 42.525C55.0055 43.875 52.083 45.75 49.6849 48.15C47.4367 50.4 45.6383 53.1 44.2894 56.25C43.0904 59.4 42.3409 62.85 42.0411 66.6C41.7414 69.15 41.5165 72.075 41.3666 75.375C41.3666 78.525 41.3666 81.825 41.3666 85.275C41.3666 88.725 41.3666 92.1 41.3666 95.4C41.5165 98.7 41.7414 101.7 42.0411 104.4C42.6407 111.9 45.1886 118.125 49.6849 123.075C54.3312 128.025 61.3009 130.5 70.5934 130.5C79.8859 130.5 86.7801 128.025 91.2765 123.075C95.7729 118.125 98.396 111.9 99.1454 104.4Z" fill="white"/>
<path d="M163.168 53.325C163.168 51.675 163.767 50.25 164.966 49.05C166.165 47.85 167.589 47.25 169.238 47.25H197.565C199.213 47.25 200.638 47.85 201.837 49.05C203.036 50.25 203.635 51.675 203.635 53.325V110.25C203.635 116.7 205.059 121.875 207.907 125.775C210.754 129.675 215.476 131.625 222.07 131.625C228.665 131.625 233.311 129.675 236.009 125.775C238.857 121.875 240.281 116.7 240.281 110.25V53.325C240.281 51.675 240.88 50.25 242.079 49.05C243.278 47.85 244.702 47.25 246.351 47.25H274.678C276.327 47.25 277.751 47.85 278.95 49.05C280.149 50.25 280.748 51.675 280.748 53.325V158.175C280.748 159.825 280.149 161.25 278.95 162.45C277.751 163.65 276.327 164.25 274.678 164.25H248.599C246.95 164.25 245.527 163.65 244.328 162.45C243.128 161.25 242.529 159.825 242.529 158.175V153C241.33 154.65 239.831 156.3 238.033 157.95C236.384 159.45 234.286 160.875 231.738 162.225C229.19 163.425 226.192 164.4 222.745 165.15C219.447 166.05 215.476 166.5 210.829 166.5C196.291 166.5 184.676 162.375 175.983 154.125C167.439 145.875 163.168 132.9 163.168 115.2V53.325Z" fill="white"/>
<path d="M341.851 118.575C341.851 122.025 342.451 124.875 343.65 127.125C344.999 129.375 346.648 131.175 348.596 132.525C350.544 133.875 352.718 134.85 355.116 135.45C357.514 135.9 359.837 136.125 362.085 136.125C366.581 136.125 370.104 135.675 372.651 134.775C375.349 133.875 377.598 132.6 379.396 130.95C381.045 129.6 382.244 128.775 382.993 128.475C383.743 128.025 385.017 127.8 386.815 127.8H416.042C419.339 127.8 420.988 129.45 420.988 132.75C420.988 134.55 419.864 137.325 417.615 141.075C415.367 144.675 411.845 148.425 407.049 152.325C402.402 156.075 396.332 159.375 388.839 162.225C381.345 165.075 372.427 166.5 362.085 166.5C352.343 166.5 343.65 165.15 336.006 162.45C328.512 159.6 322.142 155.55 316.896 150.3C311.8 145.05 307.904 138.675 305.206 131.175C302.658 123.675 301.384 115.2 301.384 105.75C301.384 97.05 302.658 89.025 305.206 81.675C307.904 74.175 311.8 67.725 316.896 62.325C322.142 56.925 328.512 52.725 336.006 49.725C343.65 46.575 352.343 45 362.085 45C373.026 45 382.319 46.875 389.963 50.625C397.756 54.225 404.051 58.95 408.848 64.8C413.794 70.65 417.316 77.25 419.414 84.6C421.662 91.8 422.786 99 422.786 106.2V112.5C422.786 114.15 422.187 115.575 420.988 116.775C419.789 117.975 418.365 118.575 416.716 118.575H341.851ZM362.085 75.375C355.79 75.375 350.994 77.25 347.697 81C344.399 84.75 342.451 88.95 341.851 93.6H382.319C381.719 88.95 379.771 84.75 376.474 81C373.176 77.25 368.38 75.375 362.085 75.375Z" fill="white"/>
<path d="M509.436 129.15C509.436 127.5 508.837 126.225 507.638 125.325C506.589 124.425 504.715 123.675 502.017 123.075C499.32 122.475 495.722 121.875 491.226 121.275C486.879 120.675 481.409 119.775 474.814 118.575C463.424 116.475 454.655 112.275 448.51 105.975C442.365 99.675 439.293 91.425 439.293 81.225C439.293 76.125 440.567 71.4 443.115 67.05C445.663 62.7 449.185 58.875 453.681 55.575C458.328 52.275 463.873 49.725 470.318 47.925C476.763 45.975 483.957 45 491.901 45C499.694 45 506.888 45.975 513.483 47.925C520.078 49.725 525.773 52.125 530.569 55.125C535.366 57.975 539.113 61.35 541.81 65.25C544.658 69 546.232 72.75 546.532 76.5C546.681 78.15 546.082 79.575 544.733 80.775C543.534 81.975 542.11 82.575 540.462 82.575H513.708C512.059 82.575 510.71 82.2 509.661 81.45C508.762 80.7 507.638 79.875 506.289 78.975C504.94 78.075 503.142 77.25 500.893 76.5C498.795 75.75 495.797 75.375 491.901 75.375C488.453 75.375 485.531 75.9 483.133 76.95C480.885 77.85 479.76 79.425 479.76 81.675C479.76 83.325 480.135 84.6 480.884 85.5C481.634 86.4 483.133 87.15 485.381 87.75C487.629 88.2 490.777 88.725 494.823 89.325C498.87 89.925 504.191 90.75 510.786 91.8C524.425 94.05 534.316 98.7 540.462 105.75C546.756 112.65 549.904 120.6 549.904 129.6C549.904 134.7 548.63 139.5 546.082 144C543.534 148.35 539.787 152.25 534.841 155.7C529.895 159 523.9 161.625 516.856 163.575C509.811 165.525 501.792 166.5 492.8 166.5C483.807 166.5 475.863 165.525 468.969 163.575C462.224 161.475 456.529 158.85 451.883 155.7C447.236 152.55 443.639 149.1 441.091 145.35C438.693 141.6 437.344 137.925 437.045 134.325C436.895 132.675 437.419 131.25 438.619 130.05C439.967 128.85 441.466 128.25 443.115 128.25H470.992C472.641 128.25 473.84 128.7 474.589 129.6C475.339 130.35 476.313 131.25 477.512 132.3C478.711 133.2 480.435 134.1 482.683 135C484.931 135.75 488.303 136.125 492.8 136.125C497.296 136.125 501.193 135.525 504.49 134.325C507.788 133.125 509.436 131.4 509.436 129.15Z" fill="white"/>
<path d="M623.312 118.575C623.312 122.025 624.062 124.725 625.561 126.675C627.059 128.475 629.533 129.375 632.98 129.375H650.965C652.614 129.375 654.038 129.975 655.237 131.175C656.436 132.375 657.035 133.8 657.035 135.45V158.175C657.035 159.825 656.436 161.25 655.237 162.45C654.038 163.65 652.614 164.25 650.965 164.25H629.607C622.563 164.25 616.118 163.275 610.273 161.325C604.578 159.225 599.707 156.3 595.66 152.55C591.613 148.65 588.465 144 586.217 138.6C583.969 133.05 582.845 126.825 582.845 119.925V82.125H566.209C564.56 82.125 563.136 81.525 561.937 80.325C560.738 79.125 560.138 77.7 560.138 76.05V53.325C560.138 51.675 560.738 50.25 561.937 49.05C563.136 47.85 564.56 47.25 566.209 47.25H582.845V10.575C582.845 8.925 583.445 7.5 584.644 6.3C585.843 5.1 587.266 4.5 588.915 4.5H617.242C618.891 4.5 620.315 5.1 621.514 6.3C622.713 7.5 623.312 8.925 623.312 10.575V47.25H648.717C650.366 47.25 651.79 47.85 652.989 49.05C654.188 50.25 654.787 51.675 654.787 53.325V76.05C654.787 77.7 654.188 79.125 652.989 80.325C651.79 81.525 650.366 82.125 648.717 82.125H623.312V118.575Z" fill="white"/>
<path d="M716.53 158.175C716.53 159.825 715.93 161.25 714.731 162.45C713.532 163.65 712.109 164.25 710.46 164.25H682.133C680.484 164.25 679.06 163.65 677.861 162.45C676.662 161.25 676.063 159.825 676.063 158.175V53.325C676.063 51.675 676.662 50.25 677.861 49.05C679.06 47.85 680.484 47.25 682.133 47.25H710.46C712.109 47.25 713.532 47.85 714.731 49.05C715.93 50.25 716.53 51.675 716.53 53.325V158.175ZM716.53 28.8C716.53 30.45 715.93 31.875 714.731 33.075C713.532 34.275 712.109 34.875 710.46 34.875H682.133C680.484 34.875 679.06 34.275 677.861 33.075C676.662 31.875 676.063 30.45 676.063 28.8V6.075C676.063 4.425 676.662 2.99999 677.861 1.79999C679.06 0.599997 680.484 0 682.133 0H710.46C712.109 0 713.532 0.599997 714.731 1.79999C715.93 2.99999 716.53 4.425 716.53 6.075V28.8Z" fill="white"/>
<path d="M859.942 97.2C860.091 99.45 860.166 102.375 860.166 105.975C860.166 109.425 860.091 112.275 859.942 114.525C859.642 121.725 857.993 128.475 854.996 134.775C851.998 141.075 847.876 146.625 842.63 151.425C837.385 156.075 831.015 159.75 823.521 162.45C816.177 165.15 807.934 166.5 798.791 166.5C789.648 166.5 781.33 165.15 773.836 162.45C766.492 159.75 760.197 156.075 754.951 151.425C749.705 146.625 745.584 141.075 742.586 134.775C739.588 128.475 737.94 121.725 737.64 114.525C737.49 112.275 737.415 109.425 737.415 105.975C737.415 102.375 737.49 99.45 737.64 97.2C737.79 90 739.364 83.25 742.361 76.95C745.359 70.65 749.481 65.175 754.726 60.525C760.122 55.725 766.492 51.975 773.836 49.275C781.33 46.425 789.648 45 798.791 45C807.934 45 816.177 46.425 823.521 49.275C831.015 51.975 837.385 55.725 842.63 60.525C848.026 65.175 852.148 70.65 854.996 76.95C857.993 83.25 859.642 90 859.942 97.2ZM778.108 113.4C778.557 119.1 780.581 123.6 784.178 126.9C787.925 130.05 792.796 131.625 798.791 131.625C804.786 131.625 809.582 130.05 813.179 126.9C816.926 123.6 819.024 119.1 819.474 113.4C819.774 111.15 819.924 108.6 819.924 105.75C819.924 102.9 819.774 100.35 819.474 98.1C819.024 92.4 816.926 87.975 813.179 84.825C809.582 81.525 804.786 79.875 798.791 79.875C792.796 79.875 787.925 81.525 784.178 84.825C780.581 87.975 778.557 92.4 778.108 98.1C777.808 100.35 777.658 102.9 777.658 105.75C777.658 108.6 777.808 111.15 778.108 113.4Z" fill="white"/>
<path d="M1000.95 158.175C1000.95 159.825 1000.35 161.25 999.152 162.45C997.953 163.65 996.529 164.25 994.88 164.25H966.553C964.905 164.25 963.481 163.65 962.282 162.45C961.083 161.25 960.483 159.825 960.483 158.175V101.25C960.483 94.8 958.909 89.625 955.762 85.725C952.614 81.825 947.668 79.875 940.924 79.875C934.179 79.875 929.233 81.825 926.086 85.725C923.088 89.625 921.589 94.8 921.589 101.25V158.175C921.589 159.825 920.99 161.25 919.791 162.45C918.592 163.65 917.168 164.25 915.519 164.25H887.192C885.544 164.25 884.12 163.65 882.921 162.45C881.721 161.25 881.122 159.825 881.122 158.175V53.325C881.122 51.675 881.721 50.25 882.921 49.05C884.12 47.85 885.544 47.25 887.192 47.25H914.395C916.044 47.25 917.468 47.85 918.667 49.05C919.866 50.25 920.465 51.675 920.465 53.325V58.5C921.664 57 923.163 55.425 924.962 53.775C926.76 52.125 928.933 50.7 931.481 49.5C934.029 48.15 936.952 47.1 940.249 46.35C943.697 45.45 947.668 45 952.165 45C959.359 45 965.954 46.05 971.949 48.15C977.944 50.1 983.04 53.175 987.236 57.375C991.583 61.575 994.955 66.9 997.353 73.35C999.751 79.8 1000.95 87.45 1000.95 96.3V158.175Z" fill="white"/>
<path d="M1091.9 129.15C1091.9 127.5 1091.3 126.225 1090.1 125.325C1089.05 124.425 1087.18 123.675 1084.48 123.075C1081.79 122.475 1078.19 121.875 1073.69 121.275C1069.35 120.675 1063.87 119.775 1057.28 118.575C1045.89 116.475 1037.12 112.275 1030.98 105.975C1024.83 99.675 1021.76 91.425 1021.76 81.225C1021.76 76.125 1023.03 71.4 1025.58 67.05C1028.13 62.7 1031.65 58.875 1036.15 55.575C1040.79 52.275 1046.34 49.725 1052.78 47.925C1059.23 45.975 1066.42 45 1074.37 45C1082.16 45 1089.35 45.975 1095.95 47.925C1102.54 49.725 1108.24 52.125 1113.04 55.125C1117.83 57.975 1121.58 61.35 1124.28 65.25C1127.12 69 1128.7 72.75 1129 76.5C1129.15 78.15 1128.55 79.575 1127.2 80.775C1126 81.975 1124.58 82.575 1122.93 82.575H1096.17C1094.53 82.575 1093.18 82.2 1092.13 81.45C1091.23 80.7 1090.1 79.875 1088.75 78.975C1087.41 78.075 1085.61 77.25 1083.36 76.5C1081.26 75.75 1078.26 75.375 1074.37 75.375C1070.92 75.375 1068 75.9 1065.6 76.95C1063.35 77.85 1062.23 79.425 1062.23 81.675C1062.23 83.325 1062.6 84.6 1063.35 85.5C1064.1 86.4 1065.6 87.15 1067.85 87.75C1070.09 88.2 1073.24 88.725 1077.29 89.325C1081.34 89.925 1086.66 90.75 1093.25 91.8C1106.89 94.05 1116.78 98.7 1122.93 105.75C1129.22 112.65 1132.37 120.6 1132.37 129.6C1132.37 134.7 1131.1 139.5 1128.55 144C1126 148.35 1122.25 152.25 1117.31 155.7C1112.36 159 1106.37 161.625 1099.32 163.575C1092.28 165.525 1084.26 166.5 1075.27 166.5C1066.27 166.5 1058.33 165.525 1051.43 163.575C1044.69 161.475 1038.99 158.85 1034.35 155.7C1029.7 152.55 1026.1 149.1 1023.56 145.35C1021.16 141.6 1019.81 137.925 1019.51 134.325C1019.36 132.675 1019.89 131.25 1021.08 130.05C1022.43 128.85 1023.93 128.25 1025.58 128.25H1053.46C1055.11 128.25 1056.31 128.7 1057.06 129.6C1057.8 130.35 1058.78 131.25 1059.98 132.3C1061.18 133.2 1062.9 134.1 1065.15 135C1067.4 135.75 1070.77 136.125 1075.27 136.125C1079.76 136.125 1083.66 135.525 1086.96 134.325C1090.25 133.125 1091.9 131.4 1091.9 129.15Z" fill="white"/>
</g>
</svg>
