<svg width="42" height="42" viewBox="0 0 42 42" fill="none" xmlns="http://www.w3.org/2000/svg">
<path d="M41.3666 26.0802C38.5618 37.3301 27.1675 44.1767 15.9162 41.3713C4.66947 38.5665 -2.17711 27.1715 0.628983 15.9222C3.43246 4.67087 14.8268 -2.17637 26.0748 0.628416C37.3255 3.4332 44.1714 14.8295 41.3666 26.0802V26.0802Z" fill="#F7931A"/>
<path d="M31.0979 17.2565C31.5381 14.3144 29.298 12.7328 26.2349 11.6777L27.2285 7.69217L24.8026 7.08758L23.8352 10.968C23.1974 10.8091 22.5424 10.6592 21.8915 10.5106L22.8658 6.60459L20.4412 6L19.4469 9.98411C18.919 9.86388 18.4008 9.74503 17.8977 9.61997L17.9005 9.60753L14.5548 8.77215L13.9095 11.3633C13.9095 11.3633 15.7094 11.7758 15.6714 11.8013C16.654 12.0466 16.8316 12.6968 16.8019 13.2123L15.6701 17.7526C15.7378 17.7699 15.8255 17.7948 15.9223 17.8335C15.8414 17.8134 15.7551 17.7913 15.6659 17.7699L14.0795 24.1302C13.9592 24.4287 13.6545 24.8765 12.9677 24.7065C12.9919 24.7418 11.2044 24.2664 11.2044 24.2664L10 27.0434L13.157 27.8304C13.7443 27.9775 14.3199 28.1316 14.8865 28.2767L13.8825 32.3078L16.3058 32.9124L17.3001 28.9242C17.962 29.1038 18.6046 29.2696 19.2334 29.4258L18.2425 33.3954L20.6685 34L21.6725 29.9765C25.8093 30.7594 28.92 30.4436 30.2294 26.702C31.2845 23.6894 30.1769 21.9516 28.0003 20.8184C29.5854 20.4529 30.7794 19.4103 31.0979 17.2565ZM25.555 25.0292C24.8053 28.0418 19.7329 26.4132 18.0884 26.0048L19.4206 20.6644C21.0651 21.0748 26.3386 21.8874 25.555 25.0292ZM26.3054 17.213C25.6214 19.9534 21.3996 18.5611 20.0301 18.2197L21.2379 13.3761C22.6074 13.7174 27.0178 14.3545 26.3054 17.213Z" fill="white"/>
</svg>
