<svg width="42" height="42" viewBox="0 0 42 42" fill="none" xmlns="http://www.w3.org/2000/svg">
<path d="M21 42C32.598 42 42 32.598 42 21C42 9.40202 32.598 0 21 0C9.40202 0 0 9.40202 0 21C0 32.598 9.40202 42 21 42Z" fill="black"/>
<path d="M15.1738 18.6063L21 12.78L26.829 18.6088L30.219 15.2188L21 6L11.784 15.216L15.1738 18.6063ZM6 21.0001L9.39012 17.6094L12.78 20.9993L9.38988 24.3895L6 21.0001ZM15.1738 23.3942L21 29.2201L26.8289 23.3914L30.2207 26.7796L30.219 26.7814L21 36.0001L11.784 26.7841L11.7792 26.7793L15.1738 23.3942ZM29.22 21.0015L32.6101 17.6114L36 21.0013L32.61 24.3914L29.22 21.0015Z" fill="#FFCB1F"/>
<path d="M24.4388 20.9985H24.4403L21.0006 17.5586L18.4581 20.1003L18.166 20.3925L17.5636 20.9951L17.5588 20.9997L17.5636 21.0047L21.0006 24.4421L24.4405 21.0021L24.4422 21.0002L24.4391 20.9985" fill="#FFCB1F"/>
</svg>
