<svg width="42" height="42" viewBox="0 0 42 42" fill="none" xmlns="http://www.w3.org/2000/svg">
<path d="M21 42C32.598 42 42 32.598 42 21C42 9.40202 32.598 0 21 0C9.40202 0 0 9.40202 0 21C0 32.598 9.40202 42 21 42Z" fill="black"/>
<path d="M21 6L24.7165 9.79464L15.3583 19.125L11.6418 15.4196L21 6Z" fill="#FFCB1F" stroke="#FFCB1F"/>
<path d="M26.6419 11.625L30.3583 15.4196L15.3583 30.375L11.6418 26.6696L26.6419 11.625Z" fill="#FFCB1F" stroke="#FFCB1F"/>
<path d="M9.71642 17.25L13.4328 21.0446L9.71642 24.75L6 21.0446L9.71642 17.25Z" fill="#FFCB1F" stroke="#FFCB1F"/>
<path d="M32.2837 17.25L36.0001 21.0446L21.0001 36L17.2837 32.2946L32.2837 17.25Z" fill="#FFCB1F" stroke="#FFCB1F"/>
</svg>
