<svg width="42" height="42" viewBox="0 0 42 42" fill="none" xmlns="http://www.w3.org/2000/svg">
<path d="M21 42C32.598 42 42 32.598 42 21C42 9.40202 32.598 0 21 0C9.40202 0 0 9.40202 0 21C0 32.598 9.40202 42 21 42Z" fill="#627EEA"/>
<path d="M21.6536 5.25V16.8918L31.4933 21.2887L21.6536 5.25Z" fill="white" fill-opacity="0.602"/>
<path d="M21.6537 5.25L11.8125 21.2887L21.6537 16.8918V5.25Z" fill="white"/>
<path d="M21.6536 28.8331V36.7437L31.4999 23.1211L21.6536 28.8331Z" fill="white" fill-opacity="0.602"/>
<path d="M21.6537 36.7437V28.8318L11.8125 23.1211L21.6537 36.7437Z" fill="white"/>
<path d="M21.6536 27.0021L31.4933 21.2888L21.6536 16.8945V27.0021Z" fill="white" fill-opacity="0.2"/>
<path d="M11.8125 21.2888L21.6537 27.0021V16.8945L11.8125 21.2888Z" fill="white" fill-opacity="0.602"/>
</svg>
