<svg width="42" height="42" viewBox="0 0 42 42" fill="none" xmlns="http://www.w3.org/2000/svg">
    <path fill-rule="evenodd" clip-rule="evenodd" d="M20.9749 0C9.38084 0 0 9.38084 0 20.9749C0 32.5689 9.38084 41.9497 20.9749 41.9497C32.5689 41.9497 41.9497 32.5689 41.9497 20.9749C41.9497 9.38084 32.5437 0 20.9749 0Z" fill="url(#paint0_linear_4770_3295)"/>
    <path d="M20.9748 1.1573C15.5173 1.1573 10.5628 3.37048 6.9664 6.96688C3.39514 10.5633 1.18197 15.4926 1.18197 20.9753C1.18197 26.4328 3.39514 31.3872 6.99155 34.9836C10.588 38.5549 15.5173 40.7932 20.9999 40.7932C26.4574 40.7932 31.4119 38.5801 35.0083 34.9836C38.5796 31.4124 40.8179 26.4579 40.8179 20.9753C40.8179 15.5178 38.6047 10.5633 35.0083 6.96688C31.3868 3.39563 26.4323 1.1573 20.9748 1.1573ZM37.8502 17.5046L38.5796 17.1022L37.7496 17.0519L37.8502 17.5046ZM8.07299 9.7082L8.50053 9.9597L8.12329 10.5884L8.34963 10.7393L8.24903 10.9154L8.02269 10.7645L7.74604 11.2172C7.79634 11.192 7.82149 11.1669 7.87179 11.1669C7.97239 11.1417 8.04784 11.1166 8.14844 11.0914C8.24903 11.0914 8.34963 11.0914 8.45023 11.0914C8.57598 11.1166 8.67658 11.1166 8.80233 11.1669C8.92808 11.192 9.02868 11.2423 9.10412 11.2675C9.17957 11.2926 9.20472 11.2926 9.15442 11.3429C9.10412 11.3681 9.00353 11.4435 8.90293 11.4687C8.80233 11.519 8.70173 11.519 8.60113 11.5441C8.50053 11.5693 8.42508 11.5693 8.34963 11.5693C8.27418 11.5693 8.19873 11.5693 8.12329 11.5441C8.02269 11.519 7.92209 11.4938 7.84664 11.4687C7.77119 11.4435 7.69574 11.4184 7.67059 11.3932L7.2682 12.0471L7.49454 12.198L7.39394 12.3741L7.1676 12.2232L6.79035 12.701H6.8155C6.84065 12.701 6.89095 12.7513 6.94125 12.7765C6.99155 12.8016 7.067 12.8771 7.1173 12.9022C7.1676 12.9525 7.2179 13.0028 7.24305 13.028C7.2682 13.0531 7.3185 13.1286 7.34364 13.204C7.36879 13.2795 7.41909 13.3549 7.44424 13.4304C7.46939 13.5058 7.46939 13.6064 7.46939 13.6567C7.46939 13.707 7.44424 13.6819 7.39394 13.6567C7.34364 13.6316 7.2682 13.5813 7.19275 13.531C7.1173 13.4807 7.04185 13.4052 6.99155 13.3298C6.94125 13.2543 6.89095 13.204 6.84065 13.1286C6.8155 13.0531 6.79035 13.0028 6.7652 12.9274C6.74005 12.8771 6.74005 12.8016 6.74005 12.7513L6.31251 13.4555L6.53885 13.6064L6.43826 13.7825L6.21191 13.6316L5.80951 14.2854L5.38197 14.0339L5.78436 13.3801L5.55802 13.2292L5.65861 13.0531L5.88496 13.204L6.6646 11.9465L6.43826 11.8208L6.53885 11.6447L6.7652 11.7956L7.54484 10.5381L7.3185 10.3872L7.41909 10.2112L7.64544 10.3621L8.07299 9.7082ZM4.19993 11.7202C4.25023 11.7453 4.32568 11.7956 4.42628 11.8459C4.50173 11.8962 4.60233 11.9214 4.67778 11.9465C4.75323 11.9717 4.85382 11.9968 4.92927 11.9968C5.00472 11.9968 5.08017 11.9968 5.15562 11.9717C5.23107 11.9465 5.30652 11.9214 5.35682 11.9214L4.92927 12.6256L4.70293 12.4747L4.60233 12.6507L4.82867 12.8016L4.42628 13.4555L4.85382 13.707L5.25622 13.0531L5.48257 13.204L5.58317 13.028L5.35682 12.8771L6.13646 11.6196L6.36281 11.7705L6.46341 11.5944L6.23706 11.4435L6.63945 10.7896L6.21191 10.5381L6.01071 10.8148C6.01071 10.7645 6.01071 10.689 5.98556 10.6387C5.96041 10.5381 5.96041 10.4627 5.91011 10.3621C5.88496 10.2866 5.80951 10.186 5.75921 10.0854C5.70891 9.98485 5.60832 9.9094 5.53287 9.83395C5.45742 9.7585 5.35682 9.68305 5.28137 9.63275C5.23107 9.58245 5.20592 9.5573 5.20592 9.63275C5.20592 9.68305 5.20592 9.8088 5.20592 9.9094C5.23107 10.0351 5.25622 10.1357 5.28137 10.2112C5.30652 10.2866 5.33167 10.3621 5.38197 10.4375C5.40712 10.513 5.45742 10.5633 5.53287 10.6387C5.58317 10.7142 5.68376 10.7896 5.73406 10.8399C5.78436 10.8902 5.83466 10.9405 5.88496 10.9657H5.91011L5.78436 11.1669L5.55802 11.016L5.45742 11.192L5.68376 11.3429L5.38197 11.8459C5.38197 11.8208 5.38197 11.8208 5.35682 11.7956C5.33167 11.7705 5.28137 11.7453 5.23107 11.7202C5.18077 11.695 5.08017 11.6447 5.02987 11.6196C4.95442 11.5944 4.90412 11.5693 4.85382 11.5693C4.80352 11.5693 4.72808 11.5693 4.65263 11.5693C4.57718 11.5693 4.50173 11.5693 4.40113 11.5944C4.32568 11.6196 4.22508 11.6447 4.19993 11.6699C4.14963 11.695 4.14963 11.695 4.19993 11.7202ZM34.1281 9.9597L33.7005 10.2112L34.1029 10.8399L33.8766 10.9908L33.9772 11.1669L34.2035 11.016L34.4802 11.4687C34.4299 11.4435 34.4047 11.4435 34.3544 11.4184C34.2538 11.3932 34.1784 11.3681 34.0778 11.3429C33.9772 11.3429 33.8766 11.3429 33.776 11.3429C33.6754 11.3429 33.5496 11.3681 33.4239 11.4184C33.3233 11.4435 33.1975 11.4938 33.1221 11.519C33.0466 11.5441 33.0215 11.5441 33.0718 11.5944C33.1221 11.6196 33.2227 11.695 33.3233 11.7202C33.4239 11.7705 33.5245 11.7705 33.6251 11.7956C33.7257 11.8208 33.8011 11.8208 33.8766 11.8208C33.952 11.8208 34.0275 11.8208 34.1029 11.7956C34.2035 11.7705 34.3041 11.7453 34.3796 11.7202C34.455 11.695 34.5305 11.6699 34.5556 11.6447L34.958 12.2986L34.7317 12.4495L34.8323 12.6256L35.0586 12.4747L35.3604 12.9525H35.3353C35.3101 12.9525 35.2598 13.0028 35.2095 13.028C35.1592 13.0531 35.0838 13.1286 35.0335 13.1789C34.9832 13.2292 34.9329 13.2543 34.9077 13.3046C34.8826 13.3549 34.8323 13.4052 34.8071 13.4807C34.782 13.5561 34.7317 13.6316 34.7065 13.707C34.6814 13.7825 34.6814 13.8831 34.6814 13.9333C34.6814 13.9836 34.7065 13.9585 34.7568 13.9333C34.8071 13.9082 34.8826 13.8579 34.958 13.8076C35.0335 13.7573 35.1089 13.6819 35.1592 13.6064C35.2095 13.531 35.2598 13.4807 35.3101 13.4052C35.3353 13.3298 35.3604 13.2795 35.3856 13.204C35.4107 13.1537 35.4107 13.0783 35.4107 13.028L35.8383 13.7322L35.6119 13.8831L35.7125 14.0591L35.9389 13.9082L36.3412 14.5621L36.7688 14.3106L36.3664 13.6567L36.5927 13.5058L36.4921 13.3298L36.2658 13.4807L35.4862 12.2232L35.7125 12.0723L35.6119 11.8962L35.3856 12.0471L34.6059 10.7896L34.8323 10.6387L34.7317 10.4627L34.5053 10.6136L34.1281 9.9597ZM38.0011 11.9968C37.9508 12.022 37.8754 12.0723 37.7748 12.1226C37.6993 12.1729 37.5987 12.198 37.5233 12.2232C37.4478 12.2483 37.3472 12.2735 37.2718 12.2735C37.1963 12.2735 37.1209 12.2735 37.0454 12.2483C36.97 12.2232 36.8945 12.198 36.8442 12.198L37.2718 12.9022L37.4981 12.7513L37.5987 12.9274L37.3724 13.0783L37.7748 13.7322L37.3472 13.9836L36.9448 13.3298L36.7185 13.4807L36.6179 13.3046L36.8442 13.1537L36.0646 11.8962L35.8383 12.0471L35.7377 11.8711L35.964 11.7202L35.5616 11.0663L35.9892 10.8148L36.1652 11.1166C36.1652 11.0663 36.1652 10.9908 36.1903 10.9405C36.2155 10.8399 36.2155 10.7645 36.2658 10.6639C36.3161 10.5633 36.3664 10.4878 36.4418 10.3872C36.5173 10.2866 36.5927 10.2112 36.6682 10.1106C36.7436 10.0351 36.8442 9.9597 36.9197 9.9094C36.97 9.8591 36.9951 9.83395 36.9951 9.88425C36.9951 9.93455 37.0203 10.0603 36.9951 10.1609C36.97 10.2615 36.9448 10.3621 36.9197 10.4627C36.8945 10.5633 36.8694 10.6136 36.8191 10.689C36.7688 10.7645 36.7436 10.8148 36.6682 10.8902C36.6179 10.9657 36.5173 11.0411 36.467 11.0914C36.4167 11.1417 36.3664 11.192 36.3161 11.2172H36.2909L36.4418 11.4435L36.6682 11.2926L36.7688 11.4687L36.5424 11.6196L36.8442 12.1226C36.8442 12.0974 36.8442 12.0974 36.8694 12.0723C36.8945 12.0471 36.9448 12.022 36.9951 11.9968C37.0454 11.9717 37.146 11.9214 37.1963 11.8962C37.2718 11.8711 37.3221 11.8459 37.3724 11.8459C37.4227 11.8459 37.4981 11.8459 37.5736 11.8459C37.649 11.8459 37.7245 11.8459 37.8251 11.8711C37.9005 11.8962 38.0011 11.9214 38.0263 11.9465C38.0514 11.9465 38.0514 11.9465 38.0011 11.9968ZM10.6886 6.86628L10.9401 6.69024C11.1664 6.51419 11.3173 6.38844 11.3676 6.23754C11.4179 6.11179 11.3927 5.9609 11.2921 5.81C11.1915 5.6591 11.0658 5.58365 10.9149 5.58365C10.7892 5.58365 10.588 5.68425 10.3113 5.8603L10.085 6.03634L10.6886 6.86628ZM11.3424 7.79682C11.4179 7.89742 11.4682 7.94772 11.5185 7.97287C11.5688 7.97287 11.6442 7.94772 11.77 7.87227L11.946 7.74652L12.1472 8.02317L10.764 9.00401L10.5628 8.67706L10.7137 8.57646C10.8143 8.50101 10.8898 8.42557 10.8898 8.37527C10.8898 8.32497 10.8646 8.24952 10.7892 8.14892L9.73287 6.63994C9.65742 6.53934 9.60712 6.48904 9.55682 6.46389C9.50652 6.46389 9.43107 6.48904 9.30532 6.56449L9.15442 6.66509L8.95323 6.36329L10.3113 5.4076C10.6634 5.15611 10.9652 5.03036 11.2167 5.03036C11.4682 5.03036 11.6945 5.13096 11.8454 5.38245C11.946 5.5082 11.9963 5.63395 12.0215 5.7597C12.0466 5.88545 12.0215 6.0112 11.9712 6.16209C11.9209 6.26269 11.8706 6.36329 11.7448 6.46389C11.6442 6.56449 11.4682 6.71539 11.2418 6.86628L10.8898 7.11778L11.3424 7.79682ZM14.2347 5.307L13.4047 4.50221L13.5305 5.63395L14.2347 5.307ZM12.952 7.39443L12.8011 7.06748L12.9017 7.01718C13.0023 6.96688 13.0778 6.91658 13.1029 6.84114C13.1281 6.76569 13.1532 6.69024 13.1532 6.56449L12.9017 3.94892L13.5053 3.67227L15.3915 5.53335C15.4921 5.63395 15.5927 5.7094 15.643 5.7094C15.6933 5.7094 15.7688 5.68425 15.8694 5.6591L15.9448 5.6088L16.0957 5.93575L14.6119 6.61479L14.461 6.28784L14.6874 6.18724C14.788 6.13694 14.8383 6.11179 14.8634 6.08664C14.8886 6.06149 14.8886 6.01119 14.8634 5.98605C14.8634 5.9609 14.8383 5.9609 14.8383 5.93575C14.8131 5.9106 14.788 5.88545 14.7628 5.8603L14.4862 5.58365L13.5556 6.01119L13.6059 6.41359C13.6059 6.41359 13.6059 6.43874 13.6059 6.46389C13.6059 6.51419 13.6059 6.53934 13.6311 6.56449C13.6562 6.58964 13.6814 6.61479 13.7065 6.61479C13.7317 6.61479 13.8071 6.58964 13.9077 6.53934L14.1341 6.43874L14.285 6.76569L12.952 7.39443ZM19.3401 5.3573L18.6862 5.4579L16.7245 3.19443L17.0263 5.08066C17.0514 5.2064 17.0766 5.28185 17.1269 5.307C17.152 5.33215 17.2526 5.33215 17.3784 5.307L17.5796 5.28185L17.6299 5.63395L16.0957 5.88545L16.0706 5.53335L16.2969 5.5082C16.4227 5.48305 16.5233 5.4579 16.5484 5.4076C16.5736 5.3573 16.5736 5.28185 16.5484 5.15611L16.2466 3.34533C16.2215 3.21958 16.1963 3.14413 16.1712 3.11898C16.1209 3.09383 16.0454 3.09383 15.9197 3.11898L15.7185 3.14413L15.643 2.76688L16.976 2.54054L18.7113 4.57766L18.4598 2.96808C18.4347 2.84233 18.4095 2.76688 18.3844 2.74173C18.3341 2.71658 18.2586 2.71658 18.1329 2.74173L17.8562 2.76688L17.8059 2.41479L19.2646 2.16329L19.3149 2.51539L19.164 2.54054C19.0131 2.56569 18.9377 2.59084 18.9125 2.64114C18.8874 2.69144 18.8874 2.76688 18.9125 2.89263L19.3401 5.3573ZM19.9939 5.28185V4.92976H20.17C20.2957 4.92976 20.3963 4.90461 20.4215 4.87946C20.4466 4.85431 20.4718 4.77886 20.4718 4.62796L20.4969 2.76688C20.4969 2.64114 20.4718 2.56569 20.4466 2.51539C20.4215 2.46509 20.3209 2.46509 20.1951 2.46509H20.0191V2.11299L21.8047 2.13814C22.358 2.13814 22.7604 2.28904 23.0371 2.54054C23.3137 2.81718 23.4646 3.19443 23.4395 3.72257C23.4395 4.25072 23.2886 4.62796 23.0119 4.87946C22.7353 5.13096 22.3077 5.28185 21.7544 5.2567L19.9939 5.28185ZM21.1257 4.95491H21.5281C21.7796 4.95491 21.9556 4.92976 22.0814 4.90461C22.2071 4.87946 22.3077 4.80401 22.4083 4.70341C22.5089 4.60281 22.5592 4.47706 22.6095 4.32617C22.6598 4.15012 22.685 3.97407 22.685 3.74772C22.685 3.54652 22.6598 3.34533 22.6095 3.16928C22.5592 2.99323 22.4838 2.86748 22.4083 2.76688C22.3329 2.66629 22.2071 2.61599 22.1065 2.56569C21.9808 2.51539 21.8047 2.51539 21.5532 2.49024H21.1508L21.1257 4.95491ZM23.7915 5.4579L23.8921 5.10581L24.0682 5.15611C24.1939 5.2064 24.2945 5.2064 24.3197 5.18126C24.37 5.15611 24.3951 5.08066 24.4454 4.95491L24.9736 3.16928C24.9987 3.04353 25.0239 2.96808 24.9987 2.91778C24.9736 2.86748 24.8981 2.84233 24.7724 2.79203L24.5712 2.76688L24.6718 2.41479L27.6395 3.29503L27.2874 4.50221L26.9353 4.40161C27.0359 4.04952 27.0359 3.82317 26.9604 3.67227C26.885 3.52138 26.7089 3.39563 26.382 3.32018L25.6526 3.11898L25.4011 4.02437L25.5772 4.07467C25.7784 4.12497 25.9041 4.12497 25.9796 4.07467C26.055 4.02437 26.1305 3.89862 26.2311 3.64712L26.5832 3.74772L26.1305 5.2567L25.8035 5.15611C25.8538 4.90461 25.879 4.70341 25.8538 4.62796C25.8287 4.52736 25.7029 4.45191 25.5269 4.40161L25.3508 4.35132L25.049 5.4076L25.8287 5.63395C26.1053 5.7094 26.2814 5.7094 26.4323 5.6088C26.558 5.5082 26.7089 5.28185 26.8347 4.90461L27.1868 5.00521L26.8095 6.28784L23.7915 5.4579ZM30.0035 6.66509L30.3556 6.86628C30.1293 7.21838 29.8526 7.44473 29.5508 7.52018C29.249 7.59563 28.9221 7.57048 28.5951 7.36928C28.3939 7.24353 28.2179 7.11778 28.0921 6.96688C27.9664 6.81599 27.8658 6.63994 27.8155 6.43874C27.7652 6.21239 27.7401 5.98605 27.7652 5.78485C27.7904 5.5585 27.8658 5.33215 27.9915 5.13096C28.1173 4.92976 28.243 4.75371 28.4191 4.60281C28.5951 4.47706 28.7963 4.37647 28.9975 4.30102C29.1987 4.25072 29.3999 4.22557 29.6011 4.25072C29.8023 4.27587 29.9784 4.32617 30.1796 4.45191C30.3305 4.52736 30.4562 4.62796 30.5568 4.75371C30.6574 4.87946 30.758 5.00521 30.8083 5.18126L31.0347 4.98006L31.3365 5.13096L30.7077 6.26269L30.4059 6.08664C30.5065 5.81 30.5568 5.5585 30.4814 5.33215C30.4311 5.10581 30.2802 4.92976 30.079 4.82916C29.8275 4.67826 29.576 4.67826 29.3245 4.80401C29.073 4.92976 28.8466 5.15611 28.6454 5.5082C28.4442 5.83515 28.3939 6.13694 28.4191 6.41359C28.4694 6.69024 28.6203 6.89143 28.8718 7.01718C29.073 7.14293 29.2742 7.16808 29.4754 7.09263C29.6263 7.04233 29.8275 6.89143 30.0035 6.66509ZM31.6886 7.41958C31.4371 7.72137 31.2862 8.02317 31.261 8.29982C31.2359 8.57646 31.3616 8.82796 31.588 9.02916C31.8143 9.23036 32.0909 9.30581 32.3676 9.25551C32.6442 9.20521 32.9209 9.00401 33.1724 8.70221C33.4239 8.40042 33.5748 8.09862 33.5999 7.82197C33.6251 7.54533 33.4993 7.29383 33.273 7.09263C33.0466 6.89143 32.77 6.81599 32.4933 6.86628C32.2167 6.91658 31.9652 7.11778 31.6886 7.41958ZM31.1353 6.94173C31.4622 6.56449 31.8395 6.36329 32.267 6.33814C32.6945 6.31299 33.1221 6.46389 33.5245 6.81599C33.9269 7.14293 34.1281 7.54533 34.1784 7.97287C34.2287 8.40042 34.0778 8.80281 33.7508 9.18006C33.4239 9.5573 33.0466 9.7585 32.5939 9.78365C32.1664 9.8088 31.7389 9.6579 31.3365 9.30581C30.9341 8.97886 30.7329 8.57646 30.6826 8.14892C30.6826 7.74652 30.8083 7.31898 31.1353 6.94173ZM8.07299 32.4435L8.50053 32.192L8.12329 31.5633L8.34963 31.4124L8.24903 31.2363L8.02269 31.3872L7.74604 30.9345C7.79634 30.9597 7.82149 30.9848 7.87179 30.9848C7.97239 31.01 8.04784 31.0351 8.14844 31.0603C8.24903 31.0603 8.34963 31.0603 8.45023 31.0603C8.55083 31.0351 8.67658 31.0351 8.80233 30.9848C8.92808 30.9597 9.02868 30.9094 9.10412 30.8842C9.17957 30.8591 9.20472 30.8591 9.15442 30.8088C9.10412 30.7836 9.00353 30.7082 8.90293 30.683C8.80233 30.6327 8.70173 30.6327 8.60113 30.6076C8.50053 30.5824 8.42508 30.5824 8.34963 30.5824C8.27418 30.5824 8.19873 30.5824 8.12329 30.6076C8.02269 30.6327 7.92209 30.6579 7.84664 30.683C7.77119 30.7082 7.69574 30.7333 7.67059 30.7585L7.2682 30.1046L7.49454 29.9537L7.39394 29.7777L7.1676 29.9286L6.79035 29.4256H6.8155C6.84065 29.4004 6.89095 29.3753 6.94125 29.3501C6.99155 29.2998 7.067 29.2495 7.1173 29.1992C7.1676 29.1489 7.2179 29.1238 7.24305 29.0735C7.2682 29.0232 7.3185 28.9729 7.34364 28.9226C7.36879 28.8471 7.41909 28.7717 7.44424 28.6962C7.46939 28.6208 7.46939 28.5202 7.46939 28.4699C7.46939 28.4196 7.44424 28.4447 7.39394 28.4699C7.34364 28.495 7.2682 28.5453 7.19275 28.5956C7.1173 28.6459 7.04185 28.7214 6.99155 28.7968C6.94125 28.8723 6.8658 28.9226 6.84065 28.998C6.8155 29.0735 6.79035 29.1238 6.7652 29.1992C6.74005 29.2495 6.74005 29.325 6.74005 29.3753L6.31251 28.6711L6.53885 28.5202L6.43826 28.3441L6.21191 28.495L5.80951 27.8411L5.38197 28.0926L5.78436 28.7465L5.55802 28.8974L5.65861 29.0735L5.88496 28.9226L6.6646 30.1801L6.43826 30.331L6.53885 30.507L6.7652 30.3561L7.54484 31.6136L7.3185 31.7645L7.41909 31.9405L7.64544 31.7896L8.07299 32.4435ZM4.19993 30.4064C4.25023 30.3813 4.32568 30.331 4.42628 30.2807C4.50173 30.2304 4.60233 30.2052 4.67778 30.1801C4.75323 30.1549 4.85382 30.1298 4.92927 30.1298C5.00472 30.1298 5.08017 30.1298 5.15562 30.1549C5.23107 30.1801 5.30652 30.2052 5.35682 30.2052L4.92927 29.501L4.70293 29.6519L4.60233 29.4759L4.82867 29.325L4.42628 28.6711L4.85382 28.4196L5.25622 29.0735L5.48257 28.9226L5.58317 29.0986L5.35682 29.2495L6.13646 30.507L6.36281 30.3561L6.46341 30.5322L6.23706 30.683L6.63945 31.3369L6.21191 31.5884L6.03586 31.2866C6.03586 31.3369 6.03586 31.4124 6.01071 31.4627C5.98556 31.5633 5.98556 31.6387 5.93526 31.7393C5.91011 31.8399 5.83466 31.9154 5.78436 32.016C5.73406 32.1166 5.63347 32.192 5.55802 32.2926C5.48257 32.3681 5.38197 32.4435 5.30652 32.4938C5.25622 32.5441 5.23107 32.5693 5.23107 32.519C5.23107 32.4687 5.20592 32.3429 5.23107 32.2423C5.25622 32.1166 5.28137 32.0411 5.30652 31.9405C5.33167 31.8651 5.35682 31.7896 5.40712 31.7142C5.43227 31.6387 5.48257 31.5884 5.55802 31.513C5.60832 31.4375 5.70891 31.3621 5.75921 31.3118C5.80951 31.2615 5.85981 31.2112 5.91011 31.186H5.93526L5.80951 30.9597L5.58317 31.1106L5.48257 30.9345L5.70891 30.7836L5.40712 30.2807C5.40712 30.3058 5.40712 30.3058 5.38197 30.331C5.35682 30.3561 5.30652 30.3813 5.25622 30.4064C5.20592 30.4316 5.10532 30.4819 5.05502 30.507C4.97957 30.5322 4.92927 30.5573 4.87897 30.5573C4.82867 30.5573 4.75323 30.5824 4.67778 30.5824C4.60233 30.5824 4.52688 30.5825 4.42628 30.5573C4.32568 30.5322 4.25023 30.507 4.22508 30.4819C4.12448 30.4567 4.14963 30.4316 4.19993 30.4064ZM4.07418 25.0244L3.31969 25.4519L4.17478 25.5274L4.07418 25.0244ZM5.55802 26.2819L5.23107 26.3573L5.20592 26.2567C5.18077 26.1813 5.15562 26.1058 5.13047 26.0807C5.10532 26.0555 5.00472 26.0304 4.90412 26.0052L2.79155 25.804L2.6155 25.0495L4.45143 23.9681C4.52688 23.9178 4.60233 23.8675 4.62748 23.8172C4.65263 23.7669 4.65263 23.7166 4.62748 23.6411L4.60233 23.5154L4.92927 23.4399L5.25622 24.8483L4.92927 24.9238L4.90412 24.8232C4.87897 24.7226 4.85382 24.6723 4.85382 24.6471C4.82867 24.622 4.80353 24.5968 4.77838 24.622C4.77838 24.622 4.75323 24.622 4.72808 24.6471C4.72808 24.6471 4.70293 24.6471 4.70293 24.6723L4.40113 24.8483L4.57718 25.5777L4.87897 25.6028C4.90412 25.6028 4.90412 25.6028 4.92927 25.6028C4.95442 25.6028 4.95442 25.6028 4.97957 25.6028C5.00472 25.6028 5.02987 25.5777 5.02987 25.5525C5.02987 25.5274 5.02987 25.4771 5.00472 25.3765L4.97957 25.2507L5.30652 25.1753L5.55802 26.2819ZM2.84185 23.2136C2.74125 23.2136 2.69095 23.2387 2.6658 23.2639C2.64065 23.289 2.64065 23.3645 2.64065 23.4651V23.5908L2.3137 23.6411L2.21311 22.3836L3.94844 21.2519L2.69095 21.3525C2.59035 21.3525 2.54005 21.3777 2.5149 21.4028C2.48975 21.428 2.48975 21.5034 2.48975 21.604V21.7549L2.13766 21.7801L2.03706 20.598L2.38915 20.5729V20.6986C2.38915 20.7992 2.4143 20.8747 2.43945 20.8998C2.4646 20.925 2.54005 20.9501 2.64065 20.925L4.67778 20.7741L4.72808 21.5789L2.867 22.786L4.22508 22.6854C4.32568 22.6854 4.37598 22.6603 4.40113 22.6351C4.42628 22.61 4.42628 22.5345 4.42628 22.4339V22.283L4.77838 22.2579L4.87897 23.4651L4.52688 23.4902V23.3645C4.52688 23.2639 4.50173 23.1884 4.47658 23.1633C4.45143 23.1381 4.37598 23.113 4.27538 23.1381L2.84185 23.2136ZM4.55203 19.089L4.57718 18.8124C4.60233 18.5609 4.55203 18.3848 4.42628 18.2591C4.30053 18.1333 4.04903 18.0579 3.72209 18.0076C3.36999 17.9573 3.1185 17.9825 2.9676 18.0579C2.8167 18.1334 2.7161 18.3094 2.6658 18.5609L2.64065 18.8124L4.55203 19.089ZM4.72808 20.2459L4.37598 20.1956L4.40113 20.0447C4.42628 19.9441 4.40113 19.8687 4.40113 19.8435C4.37598 19.8184 4.32568 19.7932 4.22508 19.7681L2.7664 19.592C2.6658 19.5669 2.59035 19.592 2.5652 19.6172C2.54005 19.6423 2.5149 19.6926 2.48975 19.8184L2.4646 19.9693L2.13766 19.919L2.33885 18.5357C2.4143 18.0328 2.5652 17.6555 2.8167 17.4292C3.0682 17.2028 3.39514 17.1274 3.84784 17.2028C4.30053 17.2531 4.60233 17.4292 4.77838 17.7058C4.95442 17.9825 5.00472 18.3848 4.92927 18.913L4.72808 20.2459ZM32.0658 34.6064L31.8143 34.8076C31.588 34.9836 31.4622 35.1345 31.4119 35.2854C31.3616 35.4112 31.4119 35.5621 31.5125 35.6878C31.6383 35.8387 31.764 35.889 31.8898 35.889C32.0155 35.889 32.2167 35.7633 32.4682 35.5621L32.6945 35.386L32.0658 34.6064ZM31.3616 33.7262C31.2862 33.6256 31.2107 33.5753 31.1604 33.5753C31.1101 33.5753 31.0347 33.6004 30.9341 33.701L30.758 33.8519L30.5317 33.5753L31.8395 32.519L32.0658 32.7956L31.9149 32.9214C31.8143 33.022 31.7389 33.0723 31.7389 33.1226C31.7389 33.1729 31.764 33.2483 31.8646 33.3489L33.0215 34.7825C33.0969 34.883 33.1724 34.9333 33.2227 34.9333C33.273 34.9333 33.3484 34.9082 33.449 34.8076L33.5999 34.6818L33.8263 34.9585L32.5436 35.9896C32.2167 36.2663 31.9149 36.392 31.6634 36.4172C31.4119 36.4423 31.1856 36.3417 31.0095 36.1154C30.9089 35.9896 30.8586 35.8639 30.8083 35.7381C30.7832 35.6124 30.7832 35.4866 30.8335 35.3357C30.8586 35.2351 30.9341 35.1345 31.0347 35.0088C31.1353 34.883 31.2862 34.7573 31.5125 34.5813L31.8395 34.3046L31.3616 33.7262ZM28.5951 36.3669L29.4502 37.1465L29.2742 36.0148L28.5951 36.3669ZM29.752 34.204L29.9281 34.5058L29.8526 34.5561C29.752 34.6064 29.6766 34.6819 29.6514 34.7322C29.6263 34.8076 29.6011 34.883 29.6263 35.0088L30.0035 37.5992L29.4251 37.901L27.4383 36.1405C27.3377 36.0399 27.2371 35.9896 27.1868 35.9896C27.1365 35.9896 27.061 36.0148 26.9604 36.0651L26.885 36.1154L26.7089 35.8136L28.1424 35.0591L28.3185 35.3609L28.0921 35.4866C27.9915 35.5369 27.9412 35.5872 27.9161 35.6124C27.891 35.6375 27.891 35.6878 27.9161 35.713C27.9161 35.7381 27.9412 35.7381 27.9412 35.7633C27.9664 35.7884 27.9915 35.8136 28.0167 35.8387L28.3185 36.1154L29.2239 35.6375L29.1484 35.2351C29.1484 35.2351 29.1484 35.21 29.1484 35.1848C29.1484 35.1345 29.1233 35.1094 29.1233 35.0842C29.0981 35.0591 29.073 35.0339 29.0478 35.0339C29.0227 35.0339 28.9472 35.0591 28.8466 35.1094L28.6454 35.2351L28.4694 34.9333L29.752 34.204ZM23.5149 36.6184L24.1436 36.4675L26.2311 38.6304L25.8035 36.7693C25.7784 36.6435 25.7532 36.5681 25.7029 36.5429C25.6526 36.5178 25.5772 36.5178 25.4514 36.5429L25.2502 36.5932L25.1748 36.2411L26.6838 35.889L26.7592 36.2411L26.558 36.2914C26.4323 36.3166 26.3317 36.3669 26.3065 36.392C26.2814 36.4172 26.2814 36.5178 26.3065 36.6435L26.7089 38.4543C26.7341 38.5801 26.7592 38.6555 26.8095 38.6807C26.8598 38.7058 26.9353 38.7058 27.061 38.6807L27.2622 38.6304L27.3377 38.9824L26.0299 39.2842L24.1688 37.3729L24.5209 38.9573C24.546 39.083 24.5712 39.1585 24.6215 39.1836C24.6718 39.2088 24.7472 39.2088 24.873 39.1836L25.0993 39.1333L25.1748 39.4854L23.7413 39.8124L23.6658 39.4603L23.8167 39.4351C23.9424 39.41 24.043 39.3597 24.0682 39.3345C24.0933 39.2842 24.0933 39.2088 24.0682 39.083L23.5149 36.6184ZM22.861 36.7441V37.0962H22.685C22.5341 37.0962 22.4586 37.1214 22.4335 37.1465C22.4083 37.1717 22.3832 37.2471 22.3832 37.398L22.4083 39.2339C22.4083 39.3597 22.4335 39.4351 22.4586 39.4854C22.4838 39.5106 22.5844 39.5357 22.7101 39.5357H22.8862V39.8878L21.1005 39.913C20.5472 39.913 20.1448 39.7872 19.843 39.5357C19.5664 39.2842 19.4155 38.8819 19.4155 38.3789C19.4155 37.8507 19.5413 37.4735 19.8179 37.1968C20.0945 36.9202 20.5221 36.7944 21.0502 36.7693L22.861 36.7441ZM21.7041 37.1214H21.3017C21.0502 37.1214 20.8742 37.1465 20.7484 37.1717C20.6227 37.222 20.5221 37.2723 20.4466 37.3729C20.3712 37.4735 20.2957 37.5992 20.2454 37.7753C20.1951 37.9513 20.17 38.1274 20.17 38.3537C20.17 38.5549 20.1951 38.7561 20.2454 38.9322C20.2957 39.1082 20.3712 39.2339 20.4466 39.3094C20.5221 39.41 20.6478 39.4603 20.7736 39.5106C20.8993 39.5609 21.0754 39.5609 21.3269 39.5609H21.7293L21.7041 37.1214ZM19.0383 36.7693L18.9628 37.1214L18.7868 37.0711C18.661 37.0459 18.5604 37.0459 18.5101 37.0711C18.4598 37.0962 18.4347 37.1717 18.4095 37.2974L17.982 39.1082C17.9568 39.2339 17.9568 39.3094 17.982 39.3597C18.0071 39.41 18.0826 39.4351 18.2335 39.4603L18.4095 39.5106L18.3341 39.8627L15.3161 39.1585L15.5927 37.9513L15.9448 38.0268C15.8694 38.3789 15.8694 38.6304 15.9448 38.7561C16.0203 38.907 16.2215 39.0076 16.5484 39.083L17.2778 39.2591L17.5041 38.3286L17.3281 38.2783C17.1269 38.228 17.0011 38.228 16.9257 38.3034C16.8502 38.3537 16.7748 38.5046 16.6993 38.731L16.3472 38.6555L16.6993 37.1214L17.0514 37.1968C17.0011 37.4735 17.0011 37.6495 17.0514 37.725C17.1017 37.8256 17.2023 37.8759 17.4035 37.9262L17.5796 37.9765L17.8311 36.895L17.0263 36.719C16.7496 36.6687 16.5736 36.6687 16.4227 36.7693C16.2969 36.8699 16.1712 37.1214 16.0706 37.4986L15.7185 37.4232L16.0203 36.1154L19.0383 36.7693ZM12.776 35.9645L12.3987 35.7884C12.5999 35.4112 12.8514 35.1848 13.1532 35.0591C13.455 34.9585 13.782 34.9585 14.1341 35.1345C14.3353 35.2351 14.5113 35.3609 14.6622 35.4866C14.8131 35.6375 14.9137 35.7884 14.9892 35.9896C15.0646 36.1908 15.1149 36.4172 15.0898 36.6435C15.0898 36.8699 15.0143 37.0962 14.9137 37.3226C14.8131 37.5489 14.6874 37.725 14.5365 37.8759C14.3856 38.0268 14.1844 38.1525 13.9832 38.228C13.782 38.3034 13.5808 38.3286 13.4047 38.3286C13.2035 38.3286 13.0023 38.2783 12.8263 38.1777C12.6754 38.1022 12.5496 38.0268 12.4239 37.901C12.3233 37.8004 12.2227 37.6495 12.1221 37.4986L11.9209 37.725L11.6191 37.5992L12.1472 36.4172L12.4742 36.5681C12.3736 36.8699 12.3736 37.1214 12.449 37.3226C12.5245 37.5489 12.6754 37.6998 12.9017 37.8004C13.1532 37.9262 13.4047 37.901 13.6562 37.7753C13.9077 37.6244 14.1089 37.3729 14.285 36.9956C14.4359 36.6435 14.4862 36.3417 14.4359 36.0651C14.3856 35.7884 14.2095 35.6124 13.9329 35.4866C13.7317 35.386 13.5305 35.386 13.3293 35.4615C13.1029 35.5621 12.9269 35.713 12.776 35.9645ZM10.9904 35.2351C11.2418 34.9082 11.3676 34.6064 11.3676 34.3298C11.3676 34.0531 11.2418 33.8016 10.9904 33.6004C10.7389 33.3992 10.4874 33.3489 10.2107 33.4244C9.93406 33.4998 9.68257 33.701 9.43107 34.0028C9.17957 34.3298 9.05382 34.6316 9.05382 34.9082C9.05382 35.1848 9.17957 35.4363 9.43107 35.6124C9.68257 35.8136 9.93406 35.8639 10.2107 35.7884C10.4874 35.7633 10.7389 35.5621 10.9904 35.2351ZM11.5939 35.6878C11.2921 36.0902 10.9149 36.2914 10.4874 36.3417C10.0598 36.392 9.63227 36.2411 9.22987 35.9393C8.82748 35.6124 8.57598 35.2351 8.52568 34.8076C8.47538 34.3801 8.57598 33.9525 8.90293 33.5753C9.20472 33.1729 9.58197 32.9717 10.0095 32.9214C10.4371 32.8711 10.8646 33.022 11.267 33.3238C11.6694 33.6507 11.9209 34.028 11.9712 34.4555C12.0215 34.883 11.8957 35.3106 11.5939 35.6878ZM34.1281 32.192L33.7005 31.9405L34.1029 31.3118L33.8766 31.1609L33.9772 30.9848L34.2035 31.1357L34.4802 30.683C34.4299 30.7082 34.4047 30.7082 34.3544 30.7333C34.2538 30.7585 34.1784 30.7836 34.0778 30.8088C33.9772 30.8339 33.8766 30.8088 33.776 30.8088C33.6754 30.8088 33.5496 30.7836 33.4239 30.7333C33.3233 30.7082 33.1975 30.6579 33.1221 30.6328C33.0466 30.6076 33.0215 30.6076 33.0718 30.5573C33.1221 30.5322 33.2227 30.4567 33.3233 30.4064C33.4239 30.3561 33.5245 30.3561 33.6251 30.331C33.7257 30.3058 33.8011 30.3058 33.8766 30.3058C33.952 30.3058 34.0275 30.331 34.1029 30.331C34.2035 30.3561 34.3041 30.3813 34.3796 30.4064C34.455 30.4316 34.5305 30.4567 34.5556 30.4819L34.958 29.828L34.7317 29.6771L34.8323 29.501L35.0586 29.6519L35.3604 29.1741H35.3353C35.3101 29.1741 35.2598 29.1238 35.2095 29.0986C35.1592 29.0483 35.0838 28.998 35.0335 28.9477C34.9832 28.8974 34.9329 28.8723 34.9077 28.822C34.8826 28.7717 34.8323 28.7214 34.8071 28.6459C34.782 28.5705 34.7317 28.495 34.7317 28.4196C34.7065 28.3441 34.7065 28.2435 34.7065 28.1932C34.7065 28.1429 34.7317 28.1681 34.782 28.1932C34.8323 28.2184 34.9077 28.2687 34.9832 28.3441C35.0586 28.3944 35.1341 28.4699 35.1844 28.5453C35.2347 28.6208 35.3101 28.6711 35.3353 28.7465C35.3604 28.822 35.3856 28.8723 35.4107 28.9477C35.4359 28.998 35.4359 29.0735 35.4359 29.1238L35.8634 28.4196L35.6371 28.2687L35.7377 28.0926L35.964 28.2435L36.3664 27.5896L36.7939 27.8411L36.3915 28.495L36.6179 28.6459L36.5173 28.822L36.2909 28.6711L35.5113 29.9286L35.7377 30.0795L35.6371 30.2555L35.4107 30.1046L34.6311 31.3621L34.8574 31.513L34.7568 31.689L34.5305 31.5381L34.1281 32.192ZM38.0011 30.1549C37.9508 30.1298 37.8754 30.0795 37.7748 30.0292C37.6993 29.9789 37.5987 29.9537 37.5233 29.9286C37.4478 29.9034 37.3472 29.8783 37.2718 29.8783C37.1963 29.8783 37.1209 29.8783 37.0454 29.9034C36.97 29.9286 36.8945 29.9537 36.8442 29.9537L37.2718 29.2495L37.4981 29.4004L37.5987 29.2244L37.3724 29.0735L37.7748 28.4196L37.3472 28.1681L36.9448 28.822L36.7185 28.6711L36.6179 28.8471L36.8442 28.998L36.0646 30.2555L35.8383 30.1046L35.7377 30.2807L35.964 30.4316L35.5616 31.0854L35.9892 31.3369L36.1652 31.0351C36.1652 31.0854 36.1652 31.1609 36.1903 31.2112C36.2155 31.3118 36.2155 31.3872 36.2658 31.4878C36.2909 31.5633 36.3664 31.6639 36.4167 31.7645C36.4921 31.8651 36.5676 31.9405 36.643 32.0411C36.7185 32.1166 36.8191 32.192 36.8945 32.2423C36.9448 32.2926 36.97 32.3178 36.97 32.2675C36.97 32.2172 36.97 32.0914 36.97 31.9908C36.9448 31.8902 36.9197 31.7896 36.8945 31.689C36.8694 31.6136 36.8442 31.5381 36.7939 31.4627C36.7688 31.3872 36.7185 31.3369 36.643 31.2615C36.5927 31.186 36.4921 31.1106 36.4418 31.0603C36.3915 31.01 36.3412 30.9597 36.2909 30.9345H36.2658L36.3915 30.7082L36.6179 30.8591L36.7185 30.683L36.4921 30.5322L36.7939 30.0292C36.7939 30.0543 36.8191 30.0543 36.8191 30.0795C36.8442 30.1046 36.8945 30.1298 36.9448 30.1549C36.9951 30.1801 37.0957 30.2304 37.146 30.2555C37.2215 30.2807 37.2718 30.3058 37.3221 30.3058C37.3724 30.3058 37.4478 30.331 37.5233 30.331C37.5987 30.331 37.6742 30.331 37.7748 30.3058C37.8502 30.2807 37.9508 30.2555 37.976 30.2304C38.0514 30.2052 38.0263 30.1801 38.0011 30.1549ZM36.643 17.6807L36.9951 17.6052L37.0203 17.731C37.0454 17.8316 37.0706 17.8819 37.0706 17.907C37.0957 17.9322 37.0957 17.9322 37.146 17.9322C37.1712 17.9322 37.1963 17.9322 37.1963 17.907C37.2215 17.907 37.2215 17.8819 37.2466 17.8819L37.4981 17.731L37.3472 17.0519L37.0957 17.0268C37.0454 17.0268 37.0203 17.0268 36.9951 17.0268C36.97 17.0268 36.9448 17.0268 36.9448 17.0268C36.9197 17.0268 36.9197 17.0519 36.8945 17.0771C36.8945 17.1022 36.8945 17.1525 36.9197 17.2028L36.9448 17.3286L36.5927 17.404L36.3412 16.2723L36.6933 16.1968L36.7185 16.2974C36.7436 16.3729 36.7688 16.4232 36.8191 16.4483C36.8694 16.4735 36.9448 16.4986 37.0454 16.5238L39.1329 16.7501L39.3341 17.6807L37.5484 18.7118C37.4227 18.7872 37.3724 18.8375 37.3472 18.8878C37.3221 18.9381 37.3221 18.9884 37.3472 19.0639L37.3724 19.1896L37.0203 19.2651L36.643 17.6807ZM39.5856 20.598L37.8251 21.5789L39.0071 21.5537C39.1077 21.5537 39.1832 21.5286 39.2083 21.5034C39.2335 21.4783 39.2335 21.428 39.2335 21.3274V21.1765H39.6107L39.6359 22.3334H39.2586V22.2328C39.2586 22.1322 39.2335 22.0819 39.2335 22.0567C39.2083 22.0316 39.1329 22.0064 39.0323 22.0064L37.0203 22.0316V21.1262L38.8814 20.095L37.5987 20.1202C37.4981 20.1202 37.4478 20.1453 37.3975 20.1705C37.3724 20.1956 37.3724 20.2459 37.3724 20.3465V20.4723H36.9951L36.97 19.3154H37.3472V19.4411C37.3472 19.5417 37.3724 19.592 37.3975 19.6172C37.4227 19.6423 37.4981 19.6675 37.5987 19.6675L39.0323 19.6423C39.1329 19.6423 39.1832 19.6172 39.2083 19.592C39.2335 19.5669 39.2335 19.4914 39.2335 19.416V19.2902H39.6107L39.5856 20.598ZM39.2838 24.3202C39.2083 24.8483 39.0323 25.2004 38.7808 25.4268C38.5293 25.6531 38.1772 25.7034 37.7496 25.6531C37.3221 25.5777 36.9951 25.4016 36.8442 25.125C36.6682 24.8483 36.6179 24.4459 36.7185 23.9178L36.9448 22.5094L37.2969 22.5597L37.2718 22.6854C37.2466 22.7609 37.2466 22.8363 37.2718 22.8615C37.2969 22.8866 37.3472 22.9118 37.4478 22.9369H37.473L38.8814 23.1633C38.982 23.1884 39.0323 23.1884 39.0826 23.1633C39.1077 23.1381 39.1329 23.0878 39.1329 22.9872L39.158 22.8615L39.5101 22.9118L39.2838 24.3202ZM37.1209 23.7669L37.0957 23.9681C37.0706 24.1441 37.1209 24.295 37.2466 24.3956C37.3724 24.4962 37.5987 24.5717 37.9257 24.622C38.2526 24.6723 38.5041 24.6723 38.655 24.622C38.8059 24.5717 38.9065 24.4459 38.9317 24.2447L38.9568 24.0435L37.1209 23.7669ZM20.9748 6.38844C16.9508 6.38844 13.3041 8.02317 10.6634 10.6639C8.02269 13.3046 6.38796 16.9513 6.38796 20.9753C6.38796 24.9992 8.02269 28.6459 10.6634 31.2866C13.3041 33.9274 16.9508 35.5621 20.9748 35.5621C24.9987 35.5621 28.6454 33.9274 31.2862 31.2866C33.9269 28.6459 35.5616 24.9992 35.5616 20.9753C35.5616 16.9513 33.9269 13.3046 31.2862 10.6639C28.6454 8.02317 24.9987 6.38844 20.9748 6.38844ZM10.3365 10.3369C13.0526 7.62078 16.8251 5.93575 20.9748 5.93575C25.1245 5.93575 28.8969 7.62078 31.6131 10.3369C34.3293 13.0531 36.0143 16.8256 36.0143 20.9753C36.0143 25.125 34.3293 28.8974 31.6131 31.6136C28.8969 34.3298 25.1245 36.0148 20.9748 36.0148C16.8251 36.0148 13.0526 34.3298 10.3365 31.6136C7.62029 28.8974 5.93526 25.125 5.93526 20.9753C5.93526 16.8256 7.59514 13.0531 10.3365 10.3369ZM6.5137 6.53934C10.2107 2.84233 15.3161 0.553711 20.9496 0.553711C26.5832 0.553711 31.6886 2.84233 35.3856 6.53934C39.0826 10.2363 41.3712 15.3417 41.3712 20.9753C41.3712 26.6088 39.0826 31.7142 35.3856 35.4112C31.6886 39.1082 26.5832 41.3968 20.9496 41.3968C15.3161 41.3968 10.2107 39.1082 6.5137 35.4112C2.8167 31.7142 0.528076 26.6088 0.528076 20.9753C0.553226 15.3417 2.84185 10.2363 6.5137 6.53934Z" fill="white"/>
    <path fill-rule="evenodd" clip-rule="evenodd" d="M25.2502 13.6061C25.3257 13.3546 25.4263 13.0529 25.5772 12.7762C25.7784 12.3738 26.1053 11.9463 26.5077 11.6696C26.9101 11.3678 27.4131 11.2169 27.8658 11.1415C28.3185 11.0912 28.7461 11.1163 29.1233 11.2421C29.5005 11.3678 29.8275 11.569 30.1041 11.7954C30.3808 12.0217 30.582 12.2732 30.758 12.6505C30.9341 13.0277 31.0598 13.5558 31.1353 14.1091C31.2107 14.6624 31.2359 15.2157 31.1856 15.9451C31.1353 16.6744 31.0095 17.605 30.9089 18.2337C30.8083 18.8624 30.7077 19.1642 30.5065 19.6169C30.4311 19.793 30.3053 19.9942 30.1796 20.1451C30.1041 19.8433 30.0287 19.5666 29.9532 19.2648C29.6766 18.3846 29.2742 17.605 28.7712 16.8505C28.5449 16.5235 28.3185 16.2217 28.067 15.8948C27.2622 14.8636 26.3568 14.1091 25.2502 13.6061Z" fill="black"/>
    <path fill-rule="evenodd" clip-rule="evenodd" d="M16.6993 13.4301C16.6238 13.2289 16.5484 13.0026 16.4226 12.7762C16.2214 12.3738 15.8945 11.9463 15.4921 11.6696C15.0897 11.3678 14.5867 11.2169 14.134 11.1415C13.6813 11.0912 13.2538 11.1163 12.8765 11.2421C12.4993 11.3678 12.1723 11.569 11.8957 11.7954C11.619 12.0217 11.4178 12.2732 11.2418 12.6505C11.0658 13.0277 10.94 13.5558 10.8646 14.1091C10.7891 14.6624 10.764 15.2157 10.8143 15.9451C10.8646 16.6744 10.9903 17.605 11.0909 18.2337C11.1915 18.8624 11.2921 19.1642 11.4933 19.6169C11.5184 19.6924 11.5687 19.7678 11.619 19.8433V19.793C11.7448 19.3654 11.8957 18.963 12.0969 18.5606C12.449 17.8313 12.8765 17.1523 13.3292 16.4984C13.631 16.0457 13.958 15.593 14.3101 15.1906C14.6119 14.8133 14.964 14.4612 15.3663 14.1594C15.7436 13.8325 16.2214 13.581 16.6993 13.4301Z" fill="black"/>
    <path fill-rule="evenodd" clip-rule="evenodd" d="M12.8516 28.7213C12.4743 28.4446 12.0971 28.1428 11.745 27.841C11.3677 27.5141 11.0156 27.162 10.6887 26.7847C10.3869 26.4075 10.1102 26.0051 10.0348 25.5021C9.93419 24.9488 10.0599 24.3955 10.236 23.8674C10.3366 23.5153 10.4623 23.1883 10.5881 22.8614C10.8144 22.2327 11.0659 21.6039 11.242 20.95C11.3677 20.5728 11.4683 20.1704 11.5689 19.7931C11.6947 19.3656 11.8456 18.9632 12.0468 18.5608C12.3989 17.8315 12.8264 17.1524 13.2791 16.4985C13.5809 16.0458 13.9078 15.5931 14.2599 15.1907C14.5617 14.8135 14.9138 14.4614 15.2911 14.1596C16.0707 13.5812 17.0264 13.2794 17.9569 13.0782C18.1078 13.053 18.2587 13.0279 18.4096 13.0027C19.315 12.8518 20.2707 12.7764 21.1761 12.7764C21.9306 12.7764 22.6851 12.8518 23.4144 13.0027C25.3761 13.4554 26.8096 14.3608 28.0168 15.8698C28.2683 16.1716 28.4947 16.4985 28.721 16.8255C29.224 17.58 29.6264 18.3847 29.9031 19.2398C30.0288 19.6674 30.1294 20.1201 30.2552 20.5476C30.3809 21.0255 30.5569 21.4782 30.733 21.9309C30.9342 22.4338 31.1102 22.9117 31.3114 23.4147C31.4372 23.7416 31.5629 24.0937 31.6384 24.4207C31.7138 24.7225 31.739 24.9991 31.7138 25.3261C31.6887 25.6279 31.6384 25.9045 31.4875 26.1812C31.2611 26.6841 30.8336 27.1368 30.4563 27.5141C30.0791 27.8913 29.6767 28.2434 29.2743 28.5704C28.545 29.1991 27.7402 29.7776 26.9354 30.3057C26.5581 30.5572 26.1809 30.7835 25.8037 30.9847C25.6528 31.0602 25.527 31.1105 25.4264 31.1608C25.2252 31.2614 25.024 31.3368 24.8228 31.4626C24.6216 31.5883 24.4456 31.7392 24.2695 31.865C24.0432 32.0159 23.8168 32.1668 23.5653 32.2674C23.1881 32.4183 22.7857 32.4434 22.3833 32.4686C22.1821 32.4937 21.9558 32.4937 21.7546 32.4937C21.4528 32.4937 21.151 32.4937 20.8492 32.4937C20.824 32.4937 20.7989 32.4937 20.7737 32.4937C20.2707 32.4686 19.7426 32.4434 19.2396 32.3931C18.6611 32.3177 18.1078 32.1919 17.6049 31.8901C17.4288 31.7895 17.2779 31.6638 17.127 31.5632C16.8755 31.3871 16.5989 31.2362 16.3474 31.0853C15.5929 30.6578 14.8887 30.18 14.1845 29.7021C13.7318 29.3752 13.2791 29.0482 12.8516 28.7213Z" fill="#FEFEFE"/>
    <path fill-rule="evenodd" clip-rule="evenodd" d="M21 26.8847C21.0252 27.1613 21.0755 27.438 21.1258 27.6643C21.1761 27.8907 21.2767 28.0667 21.3521 28.2176L21 26.8847ZM16.9258 29.4751C16.5485 28.796 16.1713 28.0164 15.9701 27.5386C15.7689 27.0607 15.7437 26.9098 15.9701 26.5326C16.1964 26.1553 16.6491 25.5517 17.2024 24.9481C17.7557 24.3445 18.4096 23.741 18.7617 23.3386C19.1138 22.9613 19.1892 22.8104 19.1389 22.4835C19.0886 22.1565 18.9126 21.6787 18.309 21.2511C17.7054 20.8236 16.6994 20.4212 16.1964 19.8931C15.6934 19.3901 15.6683 18.7362 15.6431 18.1074C15.2156 18.535 14.7629 18.9877 14.3605 19.5661C13.9581 20.1445 13.5809 20.8487 13.3042 21.5278C13.0276 22.2068 12.8264 22.8607 12.7258 23.4392C12.6252 23.9925 12.5749 24.4703 12.6755 24.923C12.7509 25.3757 12.9521 25.7781 13.0527 25.7529C13.1533 25.7278 13.1282 25.2499 13.1785 24.8978C13.2288 24.5457 13.3042 24.2942 13.4803 24.3948C13.6563 24.4954 13.9581 24.9481 14.1845 25.2751C14.4108 25.602 14.5617 25.8284 14.7377 26.2559C14.9138 26.6835 15.1401 27.3122 15.2659 27.8404C15.3665 28.3685 15.3665 28.796 15.2659 29.0475C15.1653 29.2739 15.0144 29.3242 14.788 29.2487C14.5617 29.1733 14.2599 28.9721 14.1593 28.7709C14.0587 28.5697 14.1342 28.3182 13.9581 28.1673C13.7821 27.9913 13.3545 27.8907 12.9018 27.7398C12.4491 27.5889 11.9964 27.3625 11.6443 27.1865C11.2922 27.0104 11.0659 26.8344 10.8647 26.7086C10.6635 26.5829 10.5629 26.3565 10.5126 26.5074C10.4623 26.6583 10.8898 27.0859 11.2671 27.4883C11.6443 27.8655 12.1725 28.2428 12.7258 28.6703C13.2791 29.0978 13.9833 29.6008 14.612 30.0032C15.2407 30.4308 15.794 30.7829 16.3473 31.1601C16.9258 31.5374 17.5042 31.9146 18.0072 32.141C18.5102 32.3422 18.9126 32.4176 19.4156 32.4679C19.9186 32.5182 20.497 32.5433 21.2012 32.5685C21.9054 32.5936 22.7102 32.5685 23.3138 32.4176C23.9174 32.2416 24.3198 31.9398 24.6216 31.7134C24.9485 31.4871 25.1749 31.3613 25.5773 31.1601C25.9797 30.9589 26.5581 30.6571 27.3126 30.1793C28.0671 29.7014 28.9725 29.0224 29.6264 28.4439C30.2803 27.8655 30.7078 27.3625 30.909 27.1362C31.1102 26.9098 31.0599 26.9601 30.7581 27.111C30.4563 27.2619 29.8527 27.5386 29.2994 27.7146C28.7461 27.8907 28.218 27.941 27.9665 28.0164C27.715 28.0919 27.715 28.1673 27.7653 28.2679C27.8156 28.3685 27.9413 28.5445 27.891 28.6954C27.8407 28.8715 27.6395 29.0475 27.388 29.1733C27.1365 29.299 26.8096 29.3745 26.6839 29.1984C26.533 29.0224 26.5833 28.62 26.6587 28.0416C26.7593 27.4631 26.9102 26.7338 27.2623 26.0296C27.5892 25.3254 28.0922 24.6463 28.3689 24.5457C28.6455 24.4451 28.721 24.9481 28.721 25.3757C28.721 25.8032 28.6707 26.1805 28.7461 26.1805C28.8216 26.1805 28.9976 25.8032 29.1234 25.3757C29.2491 24.923 29.2994 24.42 29.2743 23.9422C29.2491 23.4643 29.1234 23.0368 28.9976 22.5589C28.8719 22.0811 28.721 21.5529 28.4695 21.0751C28.218 20.5972 27.8659 20.1194 27.388 19.717C26.9102 19.3146 26.2563 18.9374 25.6024 18.5853C25.7533 19.1637 25.9042 19.717 25.5521 20.1697C25.2252 20.6224 24.4204 20.9242 23.8671 21.3266C23.3138 21.729 23.0371 22.1817 22.9365 22.5086C22.8359 22.8356 22.9365 22.9865 23.1377 23.2128C23.3389 23.4392 23.6156 23.741 24.0934 24.2439C24.5713 24.7469 25.2755 25.4763 25.6779 26.0044C26.0803 26.5326 26.2312 26.8595 26.2312 27.111C26.2563 27.3625 26.1557 27.5134 25.9545 27.941C25.7533 28.3936 25.4264 29.123 24.9988 29.802C24.5964 30.4811 24.0934 31.1098 23.691 31.5122C23.2886 31.8895 23.012 32.0404 22.4336 32.1158C21.8803 32.1913 21.0503 32.2416 20.3964 32.2164C19.7425 32.1913 19.2395 32.0907 18.8623 31.9398C18.4851 31.7889 18.2587 31.5877 17.9569 31.2104C17.6551 30.7074 17.303 30.1541 16.9258 29.4751ZM23.4144 26.3314C23.9425 26.2811 24.3198 26.5074 24.2192 27.0859C24.0683 26.9098 23.9425 26.8092 23.8168 26.7086C23.7162 27.2619 23.6156 27.8152 23.1377 28.2176C21.8048 29.3745 19.9186 29.0727 18.6108 27.8655C19.6419 28.2176 20.5473 28.3685 21.3521 28.2176C21.3773 28.2176 21.4024 28.2176 21.4527 28.1925C22.3078 28.0164 23.0623 27.5386 23.7665 26.6332C23.6407 26.5577 23.5401 26.4571 23.4144 26.3314ZM20.5725 29.299C21.6539 29.1984 22.2827 29.299 23.0371 28.4439C22.6348 29.626 21.6791 29.626 20.5725 29.299ZM22.6096 25.1745C22.0563 24.6966 19.9437 24.7218 19.2898 25.1745C19.0132 25.4008 19.2395 26.2559 19.491 26.3817C19.7677 26.5074 19.8683 26.2811 20.2455 26.3062C20.5725 26.3314 20.6731 26.8847 20.9497 26.8847C20.9749 26.8847 20.9749 26.8847 21 26.8847C21.0252 26.8847 21.0755 26.8595 21.1006 26.8344C21.2767 26.7086 21.3773 26.3314 21.6539 26.3062C22.0312 26.2559 22.1318 26.4823 22.4084 26.3817C22.6851 26.2559 22.8611 25.4008 22.6096 25.1745Z" fill="black"/>
    <path d="M23.7917 22.811C23.9426 21.9057 25.5522 20.4721 26.9103 21.5787C28.193 23.3392 24.5714 23.6158 23.7917 22.811Z" fill="white"/>
    <path d="M18.0575 22.8113C17.9569 21.5287 16.121 20.3718 14.9641 21.579C13.6814 23.3143 17.303 23.44 18.0575 22.8113Z" fill="white"/>
    <path fill-rule="evenodd" clip-rule="evenodd" d="M16.3976 21.1504C16.9257 21.1504 17.3784 21.5779 17.3784 22.1312C17.3784 22.6594 16.9509 23.1121 16.3976 23.1121C15.8694 23.1121 15.4167 22.6845 15.4167 22.1312C15.4167 21.93 15.467 21.754 15.5676 21.6031C15.5676 21.6282 15.5676 21.6282 15.5676 21.6534C15.5676 21.9049 15.7688 22.1061 16.0203 22.1061C16.2718 22.1061 16.473 21.9049 16.473 21.6534C16.473 21.427 16.3221 21.251 16.0958 21.2007C16.2215 21.1504 16.3221 21.1504 16.3976 21.1504Z" fill="black"/>
    <path fill-rule="evenodd" clip-rule="evenodd" d="M25.4264 21.251C25.9545 21.251 26.4072 21.6785 26.4072 22.2318C26.4072 22.76 25.9797 23.2127 25.4264 23.2127C24.8983 23.2127 24.4456 22.7851 24.4456 22.2318C24.4456 22.0558 24.4959 21.9049 24.5713 21.754C24.5713 22.0055 24.7725 22.2067 25.024 22.2067C25.2755 22.2067 25.4767 22.0055 25.4767 21.754C25.4767 21.5276 25.3006 21.3264 25.0994 21.3013C25.2252 21.2761 25.3258 21.251 25.4264 21.251Z" fill="black"/>
    <defs>
        <linearGradient id="paint0_linear_4770_3295" x1="36.4834" y1="36.4834" x2="5.4512" y2="5.4512" gradientUnits="userSpaceOnUse">
            <stop stop-color="#006633"/>
            <stop offset="0.4588" stop-color="#32CB32"/>
            <stop offset="1" stop-color="#006633"/>
        </linearGradient>
    </defs>
</svg>


