<svg width="42" height="42" viewBox="0 0 42 42" fill="none" xmlns="http://www.w3.org/2000/svg">
<path d="M21 42C32.598 42 42 32.598 42 21C42 9.40202 32.598 0 21 0C9.40202 0 0 9.40202 0 21C0 32.598 9.40202 42 21 42Z" fill="black"/>
<g clip-path="url(#clip0_4720_5440)">
<path d="M13.0609 25.9547C13.2118 25.8038 13.4192 25.7158 13.6392 25.7158H33.5914C33.956 25.7158 34.1383 26.1559 33.8806 26.4136L29.9392 30.355C29.7883 30.5059 29.5809 30.5939 29.3609 30.5939H9.40865C9.04405 30.5939 8.86175 30.1538 9.11948 29.8961L13.0609 25.9547Z" fill="url(#paint0_linear_4720_5440)"/>
<path d="M13.0594 11.2389C13.2166 11.088 13.424 11 13.6378 11H33.59C33.9546 11 34.1369 11.44 33.8791 11.6978L29.9377 15.6392C29.7869 15.79 29.5794 15.878 29.3594 15.878H9.40718C9.04258 15.878 8.86029 15.438 9.11802 15.1803L13.0594 11.2389Z" fill="url(#paint1_linear_4720_5440)"/>
<path d="M29.9392 18.5494C29.7883 18.3986 29.5809 18.3105 29.3609 18.3105H9.40865C9.04405 18.3105 8.86175 18.7506 9.11948 19.0083L13.0609 22.9497C13.2118 23.1006 13.4192 23.1886 13.6392 23.1886H33.5914C33.956 23.1886 34.1383 22.7486 33.8806 22.4908L29.9392 18.5494Z" fill="url(#paint2_linear_4720_5440)"/>
</g>
<defs>
<linearGradient id="paint0_linear_4720_5440" x1="31.6854" y1="8.64543" x2="17.8769" y2="35.0943" gradientUnits="userSpaceOnUse">
<stop stop-color="#00FFA3"/>
<stop offset="1" stop-color="#DC1FFF"/>
</linearGradient>
<linearGradient id="paint1_linear_4720_5440" x1="25.6461" y1="5.49325" x2="11.8376" y2="31.9421" gradientUnits="userSpaceOnUse">
<stop stop-color="#00FFA3"/>
<stop offset="1" stop-color="#DC1FFF"/>
</linearGradient>
<linearGradient id="paint2_linear_4720_5440" x1="28.6473" y1="7.05911" x2="14.8388" y2="33.508" gradientUnits="userSpaceOnUse">
<stop stop-color="#00FFA3"/>
<stop offset="1" stop-color="#DC1FFF"/>
</linearGradient>
<clipPath id="clip0_4720_5440">
<rect width="25" height="19.5939" fill="white" transform="translate(9 11)"/>
</clipPath>
</defs>
</svg>
