<svg width="42" height="42" viewBox="0 0 42 42" fill="none" xmlns="http://www.w3.org/2000/svg">
<path d="M21 42C32.598 42 42 32.598 42 21C42 9.40202 32.598 0 21 0C9.40202 0 0 9.40202 0 21C0 32.598 9.40202 42 21 42Z" fill="#D81206"/>
<path d="M34.7981 14.7822C33.6069 13.9491 32.3332 13.0609 31.0869 12.1796C31.0594 12.1589 31.0318 12.1382 30.9974 12.1176C30.8597 12.0143 30.7014 11.9041 30.5086 11.8422L30.4948 11.8353C27.1623 11.0297 23.7748 10.2035 20.4974 9.4048C17.523 8.68185 14.5555 7.9589 11.581 7.23595C11.5053 7.21529 11.4296 7.19463 11.3469 7.17398C11.0784 7.09824 10.7686 7.01562 10.4381 7.05693C10.3417 7.0707 10.2591 7.10513 10.1833 7.15332L10.1007 7.22218C9.96988 7.34611 9.90103 7.50447 9.8666 7.59398L9.84595 7.64906V7.96578L9.85972 8.01398C11.7394 13.2812 13.6673 18.6241 15.5263 23.795C16.9584 27.7746 18.4456 31.8989 19.8984 35.9474C19.9879 36.2228 20.2427 36.4018 20.5594 36.4294H20.6282C20.9243 36.4294 21.1859 36.2848 21.3168 36.0507L26.7699 28.0982C28.0987 26.1635 29.4276 24.2218 30.7564 22.2871C31.3004 21.4953 31.8443 20.6966 32.3882 19.9048C33.2833 18.5966 34.2059 17.2471 35.1217 15.932L35.1699 15.8632V15.7805C35.1905 15.5396 35.1974 15.0438 34.7981 14.7822V14.7822ZM28.4086 17.6809C27.1279 18.3487 25.8197 19.0373 24.5046 19.7189C25.2689 18.8996 26.04 18.0733 26.8043 17.254C27.7614 16.2212 28.7597 15.154 29.7374 14.1074L29.7581 14.0868C29.8407 13.9766 29.944 13.8733 30.0541 13.7632C30.1299 13.6874 30.2125 13.6117 30.2882 13.5222C30.7977 13.8733 31.3141 14.2314 31.8099 14.5825C32.1679 14.8373 32.5328 15.092 32.9046 15.3468C31.3899 16.1179 29.8751 16.9097 28.4086 17.6809ZM25.1174 17.3504C24.1328 18.4176 23.1138 19.5123 22.1017 20.5933C20.1394 18.211 18.1358 15.7943 16.1941 13.4602C15.3128 12.3999 14.4246 11.3327 13.5433 10.2723L13.5364 10.2655C13.3368 10.0382 13.144 9.79037 12.9512 9.55627C12.8273 9.39791 12.6964 9.24644 12.5656 9.08808C13.3643 9.29463 14.1699 9.48742 14.9617 9.67332C15.6571 9.83857 16.38 10.0107 17.0892 10.1897C21.0827 11.1605 25.083 12.1314 29.0764 13.1022C27.7476 14.5205 26.4118 15.9596 25.1174 17.3504ZM21.6541 30.7697C21.7299 30.0468 21.8125 29.3032 21.8814 28.5733C21.9433 27.9881 22.0053 27.3891 22.0673 26.8176C22.1637 25.9018 22.2669 24.9517 22.3496 24.0222L22.3702 23.8569C22.4391 23.2648 22.5079 22.652 22.5492 22.0392C22.625 21.9979 22.7076 21.9566 22.7971 21.9222C22.9004 21.874 23.0037 21.8327 23.1069 21.7707C24.6974 20.9376 26.2879 20.1045 27.8853 19.2782C29.4758 18.452 31.1076 17.5982 32.7256 16.7514C31.2522 18.8858 29.7718 21.0409 28.3397 23.1409C27.1073 24.9379 25.8404 26.79 24.5804 28.6146C24.0846 29.3445 23.5682 30.0881 23.0794 30.8041C22.5286 31.6028 21.964 32.4222 21.4132 33.2415C21.482 32.4153 21.5646 31.5822 21.6541 30.7697V30.7697ZM12.0561 10.713C11.9666 10.4651 11.8702 10.2104 11.7876 9.96939C13.6466 12.214 15.5194 14.4723 17.344 16.6618C18.2873 17.7979 19.2305 18.9271 20.1738 20.07C20.3597 20.2835 20.5456 20.5107 20.7246 20.731C20.9587 21.0133 21.1928 21.3094 21.4476 21.5917C21.365 22.3009 21.2961 23.0169 21.2204 23.7055C21.1722 24.1874 21.124 24.6694 21.0689 25.1582V25.1651C21.0482 25.475 21.0069 25.7848 20.9725 26.0877C20.9243 26.5077 20.8141 27.4579 20.8141 27.4579L20.8073 27.5061C20.6833 28.8969 20.5318 30.3015 20.3873 31.6648C20.3253 32.2294 20.2702 32.8077 20.2082 33.3861C20.1738 33.2828 20.1325 33.1796 20.0981 33.0832C19.9948 32.8077 19.8915 32.5186 19.7951 32.2363L19.0584 30.1914C16.7243 23.6986 14.3902 17.2127 12.0561 10.713Z" fill="white"/>
</svg>
