<svg width="32" height="24" viewBox="0 0 32 24" fill="none" xmlns="http://www.w3.org/2000/svg">
    <path d="M28.0367 3.7802C25.8349 2.01873 23.1927 1.138 20.4037 0.991211L19.9633 1.43158C22.4587 2.01873 24.6606 3.19305 26.7156 4.80772C24.2202 3.48662 21.4312 2.60589 18.4954 2.31231C17.6147 2.16552 16.8807 2.16552 16 2.16552C15.1193 2.16552 14.3853 2.16552 13.5046 2.31231C10.5688 2.60589 7.77982 3.48662 5.2844 4.80772C7.33945 3.19305 9.54128 2.01873 12.0367 1.43158L11.5963 0.991211C8.80734 1.138 6.16514 2.01873 3.9633 3.7802C1.46789 8.47745 0.146789 13.7619 0 19.193C2.20183 21.5417 5.2844 23.0096 8.51376 23.0096C8.51376 23.0096 9.54128 21.8352 10.2752 20.8077C8.36697 20.3674 6.6055 19.3398 5.43119 17.7252C6.45872 18.3123 7.48624 18.8995 8.51376 19.3398C9.83486 19.927 11.156 20.2206 12.4771 20.5141C13.6514 20.6609 14.8257 20.8077 16 20.8077C17.1743 20.8077 18.3486 20.6609 19.5229 20.5141C20.844 20.2206 22.1651 19.927 23.4862 19.3398C24.5138 18.8995 25.5413 18.3123 26.5688 17.7252C25.3945 19.3398 23.633 20.3674 21.7248 20.8077C22.4587 21.8352 23.4862 23.0096 23.4862 23.0096C26.7156 23.0096 29.7982 21.5417 32 19.193C31.8532 13.7619 30.5321 8.47745 28.0367 3.7802ZM11.156 16.5508C9.68807 16.5508 8.36697 15.2297 8.36697 13.6151C8.36697 12.0004 9.68807 10.6793 11.156 10.6793C12.6239 10.6793 13.945 12.0004 13.945 13.6151C13.945 15.2297 12.6239 16.5508 11.156 16.5508ZM20.844 16.5508C19.3761 16.5508 18.055 15.2297 18.055 13.6151C18.055 12.0004 19.3761 10.6793 20.844 10.6793C22.3119 10.6793 23.633 12.0004 23.633 13.6151C23.633 15.2297 22.3119 16.5508 20.844 16.5508Z" fill="white"/>
</svg>

