<svg width="34" height="39" viewBox="0 0 34 39" fill="none" xmlns="http://www.w3.org/2000/svg">
    <path fill-rule="evenodd" clip-rule="evenodd" d="M25.4224 37.8288C23.0848 38.5891 20.5901 39.0001 17.9999 39.0001C15.408 39.0001 12.9117 38.5885 10.5727 37.8272C11.6532 37.9567 12.0524 37.2533 12.0524 36.6459C12.0524 36.3815 12.0479 35.9151 12.0419 35.2912C12.0349 34.5693 12.0259 33.6365 12.0194 32.5616C5.34294 34.013 3.93444 29.3419 3.93444 29.3419C2.84394 26.5681 1.27044 25.8295 1.27044 25.8295C-0.909062 24.3388 1.43544 24.3691 1.43544 24.3691C3.84294 24.5388 5.11044 26.8443 5.11044 26.8443C7.25244 30.5144 10.7279 29.4548 12.0959 28.8391C12.3134 27.2872 12.9344 26.2287 13.6199 25.6284C8.29044 25.0221 2.68794 22.9626 2.68794 13.7598C2.68794 11.1373 3.62244 8.99407 5.15844 7.31431C4.91094 6.70654 4.08744 4.26576 5.39244 0.958939C5.39244 0.958939 7.40844 0.313422 11.9924 3.42065C13.9079 2.88764 15.9599 2.62226 18.0014 2.61142C20.0399 2.62188 22.0934 2.88764 24.0104 3.42065C28.5914 0.313422 30.6029 0.958939 30.6029 0.958939C31.9124 4.26576 31.0889 6.70654 30.8414 7.31431C32.3804 8.99407 33.3089 11.1373 33.3089 13.7598C33.3089 22.985 27.6974 25.0161 22.3514 25.6104C23.2124 26.352 23.9804 27.8168 23.9804 30.058C23.9804 32.205 23.967 34.074 23.9581 35.3125C23.9537 35.9262 23.9504 36.3851 23.9504 36.6463C23.9504 37.2564 24.34 37.9614 25.4224 37.8288Z" fill="white"/>
</svg>
