<svg width="35" height="22" viewBox="0 0 35 22" fill="none" xmlns="http://www.w3.org/2000/svg">
    <path d="M28.4516 6.37207C29.4729 6.37207 30.4938 6.37207 31.5198 6.37207C31.5254 7.39855 31.5352 8.43017 31.5408 9.45618C32.5668 9.46645 33.5984 9.47159 34.6249 9.47673C34.6249 10.5032 34.6249 11.5241 34.6249 12.5506C33.5989 12.5557 32.5673 12.5608 31.5408 12.566C31.5305 13.5976 31.5254 14.6236 31.5198 15.6552C30.4938 15.6501 29.4668 15.6552 28.446 15.6552C28.4362 14.6236 28.4362 13.5976 28.4254 12.5711C27.3994 12.5604 26.3678 12.5557 25.3413 12.5501C25.3413 11.5236 25.3413 10.5027 25.3413 9.47626C26.3678 9.47112 27.3943 9.46599 28.4254 9.45571C28.4306 8.43017 28.4408 7.39855 28.4516 6.37207Z" fill="white"/>
    <path d="M0.631634 11.0136C0.42008 5.44364 5.29889 0.296297 10.8745 0.229515C13.7162 -0.0128608 16.4809 1.09068 18.6314 2.89052C17.7493 3.86049 16.8517 4.81925 15.8929 5.71684C13.9997 4.5666 11.7202 3.69003 9.50755 4.46853C5.93869 5.48473 3.77739 9.69853 5.09808 13.1899C6.19181 16.8362 10.627 18.8374 14.1029 17.3056C15.9027 16.6611 17.0894 15.0004 17.6101 13.216C15.5473 13.1749 13.4841 13.2006 11.4213 13.1436C11.4162 11.9163 11.4111 10.6937 11.4162 9.46643C14.8562 9.46129 18.3013 9.45102 21.7464 9.48184C21.9579 12.4889 21.5143 15.707 19.5594 18.1205C16.8825 21.5656 11.9369 22.5767 7.91366 21.2252C3.64382 19.8228 0.5387 15.5212 0.631634 11.0136Z" fill="white"/>
</svg>


