<svg width="27" height="26" viewBox="0 0 27 26" fill="none" xmlns="http://www.w3.org/2000/svg">
    <path d="M26.325 25.3246C24.75 25.2871 23.2125 25.2871 21.6375 25.3246C21.3 25.3246 21.225 25.2496 21.225 24.9121C21.225 22.1371 21.225 19.3246 21.225 16.5496C21.225 15.9121 21.1875 15.2746 21 14.6746C20.4375 12.7246 18.1875 12.0121 16.575 13.3246C15.7125 13.9996 15.375 14.9371 15.375 16.0621C15.375 18.6871 15.375 21.3121 15.375 23.9371C15.375 24.2746 15.3375 24.6121 15.375 24.9871C15.4125 25.2871 15.2625 25.3621 15 25.3246C13.3875 25.3246 11.8125 25.3246 10.2 25.3246C9.89995 25.3246 9.82495 25.2496 9.82495 24.9496C9.86245 22.5871 9.86245 20.2246 9.86245 17.8246C9.86245 14.8996 9.86245 11.9746 9.82495 9.08709C9.82495 8.74959 9.89995 8.67459 10.2 8.67459C11.8125 8.67459 13.3875 8.67459 15 8.67459C15.3 8.67459 15.375 8.74959 15.375 9.04959C15.375 9.64959 15.375 10.2496 15.375 10.9621C15.4875 10.8496 15.525 10.8121 15.5625 10.7746C17.025 8.63709 19.0875 8.03709 21.525 8.41209C24.3375 8.86209 26.1374 10.8121 26.5875 13.8121C26.6999 14.5246 26.7375 15.2371 26.7375 15.9496C26.7375 18.9496 26.7375 21.9121 26.7375 24.9121C26.7375 25.2121 26.6625 25.3246 26.325 25.3246Z" fill="white"/>
    <path d="M6.825 16.9998C6.825 19.6248 6.825 22.2498 6.825 24.8748C6.825 25.2123 6.75 25.3248 6.4125 25.3248C4.8375 25.2873 3.2625 25.3248 1.6875 25.3248C1.3875 25.3248 1.3125 25.2498 1.3125 24.9498C1.3125 19.6623 1.3125 14.3373 1.3125 9.0498C1.3125 8.7873 1.3875 8.6748 1.6875 8.6748C3.3 8.6748 4.9125 8.6748 6.525 8.6748C6.8625 8.6748 6.9 8.7873 6.9 9.0873C6.825 11.7123 6.825 14.3373 6.825 16.9998Z" fill="white"/>
    <path d="M7.08745 4.32453C6.71245 5.82453 5.17495 6.68703 3.41245 6.38703C1.53745 6.08703 0.487446 4.24953 1.16245 2.44953C1.61245 1.32453 2.69995 0.649532 4.08745 0.687032C6.18745 0.649532 7.57495 2.33703 7.08745 4.32453Z" fill="white"/>
</svg>
