<svg width="30" height="24" viewBox="0 0 30 24" fill="none" xmlns="http://www.w3.org/2000/svg">
    <path d="M29.5 23.6571L27.3307 21.4857C27.1024 21.3714 26.9882 21.0286 26.9882 20.8V3.42857C26.9882 3.2 27.1024 2.85714 27.3307 2.62857L29.5 0.114284V0H21.7362L15.9134 14.7429L9.29134 0H1.29921V0.114284L3.35433 2.97143C3.81102 3.42857 3.9252 4.11428 3.9252 4.68571V17.2571C4.03937 17.9429 3.9252 18.7429 3.58268 19.4286L0.5 23.6571V23.7714H8.72047V23.6571L5.63779 19.5429C5.29528 18.8571 5.1811 18.1714 5.29528 17.3714V5.94286C5.40945 6.17143 5.52362 6.17143 5.63779 6.62857L13.4016 24H13.5157L21.0512 5.14286C20.937 5.82857 20.937 6.62857 20.937 7.2V20.6857C20.937 21.0286 20.8228 21.2571 20.5945 21.4857L18.311 23.6571V23.7714H29.5V23.6571Z" fill="white"/>
</svg>

