<svg width="20" height="32" viewBox="0 0 20 32" fill="none" xmlns="http://www.w3.org/2000/svg">
    <path d="M9.9998 4.84016C11.8854 4.84016 13.4192 6.37396 13.4192 8.25959C13.4192 10.1436 11.885 11.6774 9.9998 11.6774C8.11537 11.6774 6.58117 10.1436 6.58117 8.25959C6.58078 6.37357 8.11576 4.84016 9.9998 4.84016ZM9.9998 16.5152C14.5546 16.5152 18.2586 12.8124 18.2586 8.25959C18.2586 3.70444 14.5549 0 9.9998 0C5.44545 0 1.74101 3.70484 1.74101 8.25959C1.74101 12.8124 5.44545 16.5152 9.9998 16.5152ZM13.341 23.2517C15.0399 22.8648 16.6613 22.1934 18.1364 21.266C18.6795 20.9244 19.0646 20.3809 19.207 19.7553C19.3495 19.1297 19.2375 18.4731 18.8958 17.93C18.7269 17.6609 18.5065 17.4276 18.2473 17.2437C17.9881 17.0598 17.6952 16.9287 17.3853 16.8581C17.0754 16.7875 16.7547 16.7786 16.4414 16.832C16.1281 16.8855 15.8284 17.0001 15.5594 17.1695C12.176 19.2966 7.82126 19.295 4.44057 17.1695C4.17167 17.0001 3.872 16.8854 3.55873 16.8319C3.24545 16.7785 2.9247 16.7873 2.61485 16.858C2.305 16.9286 2.01211 17.0597 1.75296 17.2436C1.49381 17.4276 1.27347 17.6608 1.10456 17.93C0.762779 18.473 0.650652 19.1294 0.792838 19.755C0.935025 20.3807 1.31988 20.9242 1.86276 21.266C3.33784 22.1931 4.95886 22.8644 6.65747 23.2517L2.04065 27.8693C1.58695 28.3232 1.33212 28.9387 1.33223 29.5804C1.33234 30.2222 1.58738 30.8376 2.04124 31.2913C2.49511 31.745 3.11062 31.9998 3.75236 31.9997C4.39411 31.9996 5.00953 31.7446 5.46324 31.2907L9.99901 26.7541L14.5376 31.2911C14.762 31.5158 15.0285 31.6941 15.3218 31.8157C15.6152 31.9374 15.9297 32 16.2473 32C16.5649 32 16.8793 31.9374 17.1727 31.8157C17.4661 31.6941 17.7326 31.5158 17.957 31.2911C18.182 31.0667 18.3606 30.8001 18.4825 30.5066C18.6043 30.2131 18.667 29.8984 18.667 29.5806C18.667 29.2628 18.6043 28.9481 18.4825 28.6546C18.3606 28.361 18.182 28.0945 17.957 27.8701L13.341 23.2517Z" fill="white"/>
</svg>

