<svg width="33" height="29" viewBox="0 0 33 29" fill="none" xmlns="http://www.w3.org/2000/svg">
    <path fill-rule="evenodd" clip-rule="evenodd" d="M31.3757 13.1172C31.7637 13.6707 31.9833 14.3247 32.008 15.0003C32.0182 15.6616 31.8411 16.3123 31.4971 16.8771C31.153 17.442 30.6562 17.8979 30.064 18.1923C30.091 18.5438 30.091 18.8968 30.064 19.2483C30.064 24.6243 23.8 28.9923 16.072 28.9923C8.34396 28.9923 2.07996 24.6243 2.07996 19.2483C2.05294 18.8968 2.05294 18.5438 2.07996 18.1923C1.61834 17.9802 1.20836 17.6703 0.878424 17.284C0.548489 16.8977 0.306492 16.4443 0.169203 15.9552C0.0319137 15.4661 0.00261601 14.953 0.0833402 14.4515C0.164064 13.9499 0.35288 13.4719 0.636701 13.0506C0.920523 12.6293 1.29256 12.2747 1.72704 12.0114C2.16152 11.7482 2.64804 11.5826 3.15289 11.526C3.65774 11.4695 4.16884 11.5234 4.65078 11.684C5.13273 11.8447 5.57398 12.1082 5.94396 12.4563C8.70941 10.5807 11.9629 9.55466 15.304 9.50429L17.08 1.17629C17.0999 1.07988 17.1388 0.988384 17.1943 0.90711C17.2499 0.825836 17.3211 0.756398 17.4037 0.702821C17.4863 0.649244 17.5787 0.612593 17.6755 0.594993C17.7724 0.577392 17.8718 0.579193 17.968 0.60029L23.848 1.77629C24.1351 1.28294 24.5887 0.908093 25.1273 0.719036C25.6659 0.529978 26.2543 0.539091 26.7868 0.744737C27.3193 0.950383 27.7611 1.3391 28.0328 1.8411C28.3046 2.34311 28.3885 2.92553 28.2695 3.48383C28.1505 4.04212 27.8364 4.53973 27.3836 4.88732C26.9308 5.23492 26.369 5.40974 25.7989 5.38041C25.2288 5.35108 24.6878 5.11952 24.2731 4.72729C23.8584 4.33506 23.597 3.80785 23.536 3.24029L18.4 2.16029L16.84 9.64829C20.1404 9.71909 23.3498 10.7444 26.08 12.6003C26.5677 12.1322 27.1804 11.8152 27.8442 11.6874C28.508 11.5597 29.1946 11.6267 29.8212 11.8804C30.4478 12.1341 30.9877 12.5636 31.3757 13.1172ZM21.5312 19.7972C22.8558 19.7972 23.9296 18.7234 23.9296 17.3987C23.9296 16.0741 22.8558 15.0003 21.5312 15.0003C20.2066 15.0003 19.1328 16.0741 19.1328 17.3987C19.1328 18.7234 20.2066 19.7972 21.5312 19.7972ZM12.8125 17.3987C12.8125 18.7234 11.7386 19.7972 10.414 19.7972C9.0894 19.7972 8.01558 18.7234 8.01558 17.3987C8.01558 16.0741 9.0894 15.0003 10.414 15.0003C11.7386 15.0003 12.8125 16.0741 12.8125 17.3987ZM16.0236 24.5715L16.0118 24.5716L16 24.5715V24.5717C14.2893 24.582 13.0244 24.1988 12.1966 23.8234C11.7795 23.6343 11.4717 23.4463 11.2729 23.31C11.1735 23.2418 11.1014 23.1866 11.0567 23.1507C11.0343 23.1328 11.0188 23.1197 11.0102 23.1122L11.0031 23.1061C11.0029 23.1059 11.0027 23.1057 11.0024 23.1055C10.738 22.8648 10.3285 22.8828 10.0863 23.1464C9.84341 23.4107 9.86078 23.8219 10.1251 24.0648L10.1261 24.0658L10.1273 24.0669L10.1303 24.0695L10.1382 24.0766L10.1622 24.0976C10.1819 24.1145 10.2089 24.1372 10.2432 24.1648C10.3119 24.2199 10.41 24.2946 10.5377 24.3821C10.7929 24.5572 11.1668 24.7838 11.6597 25.0073C12.6431 25.4533 14.0944 25.8838 16.0118 25.8716C17.9291 25.8838 19.3804 25.4533 20.3639 25.0073C20.8568 24.7838 21.2306 24.5572 21.4859 24.3821C21.6135 24.2946 21.7117 24.2199 21.7803 24.1648C21.8147 24.1372 21.8417 24.1145 21.8614 24.0976L21.8854 24.0766L21.8933 24.0695L21.8962 24.0669L21.8974 24.0658L21.8984 24.0648C22.1628 23.8219 22.1801 23.4107 21.9372 23.1464C21.695 22.8828 21.2855 22.8648 21.0211 23.1055L21.0204 23.1061L21.0134 23.1122C21.0047 23.1197 20.9892 23.1328 20.9669 23.1507C20.9221 23.1866 20.8501 23.2418 20.7507 23.31C20.5518 23.4463 20.244 23.6343 19.827 23.8234C18.9991 24.1988 17.7342 24.582 16.0236 24.5717V24.5715Z" fill="white"/>
</svg>
