<svg width="27" height="27" viewBox="0 0 27 27" fill="none" xmlns="http://www.w3.org/2000/svg">
    <path d="M7.20204 22.9078C7.20204 24.7445 5.7 26.2381 3.85236 26.2381C2.00473 26.2381 0.502686 24.7445 0.502686 22.9078C0.502686 21.0705 2.00473 19.5769 3.85236 19.5769C5.7 19.5769 7.20204 21.0712 7.20204 22.9078ZM26.3445 26.2387C26.3952 18.5781 22.8331 10.988 16.8646 6.14349C12.3175 2.36876 6.43026 0.229127 0.502686 0.249163V6.19449C7.51649 6.11373 14.4289 9.90849 18.0314 15.9042C19.9376 19.0148 20.9488 22.5858 20.9549 26.2284H26.3445V26.2387ZM17.2102 26.2387C17.2401 21.3134 14.8857 16.4689 11.039 13.3802C8.09533 10.9783 4.30969 9.62556 0.503296 9.6462V14.6522C4.64429 14.6018 8.70469 16.9637 10.6836 20.5866C11.6478 22.32 12.1543 24.2682 12.1557 26.249H17.2102V26.2387Z" fill="white"/>
</svg>
