<svg width="30" height="30" viewBox="0 0 30 30" fill="none" xmlns="http://www.w3.org/2000/svg">
    <path d="M28.9382 17.4983C28.9287 17.5511 28.922 17.6043 28.912 17.657L28.8607 17.3548C28.8887 17.4019 28.912 17.4508 28.9382 17.4983C29.093 16.6555 29.1743 15.7927 29.1743 14.9304C29.1743 13.0182 28.7999 11.1629 28.0602 9.41645C27.3466 7.72938 26.3256 6.21429 25.0238 4.91348C23.724 3.61266 22.2079 2.59168 20.5218 1.87808C18.7758 1.13931 16.9206 0.764932 15.0083 0.764932C14.1071 0.764932 13.2044 0.849499 12.3259 1.01816C12.324 1.01863 12.3216 1.01863 12.3193 1.01911C12.3687 1.04524 12.4186 1.06852 12.467 1.0956L12.1691 1.04904C12.219 1.03954 12.2694 1.02909 12.3193 1.01911C11.1139 0.378203 9.75849 0.0361328 8.38641 0.0361328C6.14633 0.0361328 4.04023 0.908411 2.45625 2.49286C0.872753 4.07683 0 6.18294 0 8.42302C0 9.84879 0.366775 11.2503 1.05519 12.4889C1.06422 12.4376 1.07039 12.3858 1.08037 12.3345L1.13168 12.6314C1.10508 12.5849 1.0818 12.5364 1.05519 12.4889C0.915512 13.2913 0.841872 14.1114 0.841872 14.9304C0.841872 16.8432 1.21625 18.6979 1.95597 20.4449C2.66862 22.1324 3.69008 23.6466 4.99042 24.9474C6.29218 26.2482 7.80632 27.2706 9.49434 27.9823C11.2403 28.7225 13.096 29.0973 15.0083 29.0973C15.8407 29.0973 16.675 29.0213 17.4893 28.8769C17.4418 28.8503 17.3933 28.8261 17.3448 28.798L17.6475 28.8512C17.5952 28.8612 17.5425 28.8674 17.4893 28.8769C18.744 29.5867 20.1645 29.9639 21.615 29.9639C23.8546 29.9639 25.9598 29.0931 27.5437 27.5081C29.1282 25.9251 30 23.8185 30 21.5785C30 20.1479 29.6313 18.7417 28.9382 17.4983ZM15.0649 23.6062C10.0321 23.6062 7.78066 21.1319 7.78066 19.2776C7.78066 18.3264 8.48286 17.6599 9.45063 17.6599C11.6042 17.6599 11.0465 20.7523 15.0649 20.7523C17.122 20.7523 18.258 19.6353 18.258 18.4922C18.258 17.8048 17.9188 17.0427 16.5643 16.7087L12.0879 15.5913C8.48286 14.6872 7.82865 12.7383 7.82865 10.9064C7.82865 7.10273 11.4099 5.67458 14.7731 5.67458C17.8712 5.67458 21.5233 7.38683 21.5233 9.66872C21.5233 10.6465 20.6767 11.2152 19.7094 11.2152C17.8712 11.2152 18.2095 8.67102 14.5071 8.67102C12.6699 8.67102 11.6522 9.50292 11.6522 10.6935C11.6522 11.8817 13.1032 12.2613 14.3631 12.5483L17.6765 13.2837C21.3057 14.0924 22.226 16.2113 22.226 18.2072C22.226 21.2981 19.8534 23.6062 15.0649 23.6062ZM17.3448 28.798C17.3933 28.8261 17.4418 28.8503 17.4893 28.8769C17.5425 28.8674 17.5952 28.8612 17.6475 28.8512L17.3448 28.798ZM28.912 17.657C28.922 17.6043 28.9287 17.5511 28.9382 17.4983C28.912 17.4508 28.8887 17.4019 28.8607 17.3548L28.912 17.657ZM1.08037 12.3345C1.07039 12.3858 1.06422 12.4376 1.05519 12.4889C1.0818 12.5364 1.10508 12.5849 1.13168 12.6314L1.08037 12.3345ZM12.467 1.0956C12.4186 1.06852 12.3687 1.04524 12.3193 1.01911C12.2694 1.02909 12.219 1.03954 12.1691 1.04904L12.467 1.0956Z" fill="white"/>
</svg>
