<svg width="32" height="33" viewBox="0 0 32 33" fill="none" xmlns="http://www.w3.org/2000/svg">
    <path d="M27.7535 3.18454C26.9596 2.45468 23.7456 0.117822 16.5814 0.0858102C16.5814 0.0858102 8.13673 -0.426377 4.02002 3.351C1.72798 5.64304 0.921288 8.99147 0.838057 13.153C0.754827 17.3081 0.645987 25.0998 8.15593 27.2125H8.16234L8.15593 30.4329C8.15593 30.4329 8.11112 31.739 8.96903 32.0015C10.0062 32.3216 10.6208 31.3292 11.6132 30.26C12.1574 29.671 12.9065 28.8131 13.4763 28.1537C18.611 28.5826 22.5612 27.5967 23.0094 27.4494C24.0465 27.1101 29.9175 26.361 30.8714 18.5694C31.8574 10.5536 30.3913 5.47658 27.7535 3.18454ZM28.6242 18.006C27.8175 24.5107 23.0606 24.9205 22.1835 25.2022C21.8121 25.3238 18.3421 26.1882 13.9757 25.9C13.9757 25.9 10.7233 29.8247 9.7117 30.8427C9.55164 31.0027 9.36598 31.0667 9.24433 31.0347C9.07147 30.9899 9.02025 30.785 9.02665 30.4841C9.02665 30.0488 9.05226 25.1254 9.05226 25.1254C9.04586 25.1254 9.04586 25.1254 9.05226 25.1254C2.69474 23.3647 3.06607 16.7319 3.1365 13.2618C3.20692 9.79176 3.85996 6.94272 5.79987 5.02842C9.27634 1.87847 16.4534 2.34584 16.4534 2.34584C22.51 2.37145 25.4102 4.19611 26.0825 4.80434C28.3169 6.72504 29.4565 11.3027 28.6242 18.006Z" fill="white"/>
    <path d="M19.5328 13.3835C19.3216 13.3835 19.1423 13.217 19.1295 12.9993C19.0591 11.6228 18.4124 10.9506 17.0935 10.8802C16.8695 10.8674 16.6966 10.6753 16.7094 10.4512C16.7222 10.2271 16.9143 10.0543 17.1384 10.0671C18.8798 10.1631 19.853 11.1619 19.9426 12.9545C19.9554 13.1786 19.7825 13.3707 19.5584 13.3771C19.5456 13.3835 19.5392 13.3835 19.5328 13.3835Z" fill="white"/>
    <path d="M21.6072 14.0753H21.6008C21.3767 14.0689 21.1974 13.8832 21.2038 13.6591C21.2359 12.2762 20.8389 11.1558 19.9938 10.2339C19.1551 9.31193 17.9963 8.81255 16.4661 8.70371C16.242 8.6845 16.0756 8.49243 16.0948 8.26835C16.114 8.04427 16.306 7.87781 16.5301 7.89702C18.2588 8.02506 19.6225 8.62688 20.5956 9.68967C21.5752 10.7589 22.0489 12.097 22.0169 13.6783C22.0105 13.9024 21.8249 14.0753 21.6072 14.0753Z" fill="white"/>
    <path d="M23.7327 14.9075C23.5087 14.9075 23.3294 14.7283 23.3294 14.5042C23.3102 12.0265 22.5995 10.1378 21.1526 8.72285C19.7249 7.32714 17.913 6.61648 15.781 6.59728C15.557 6.59728 15.3777 6.41161 15.3777 6.18753C15.3777 5.96345 15.5634 5.78418 15.781 5.78418C18.1307 5.80339 20.1282 6.59087 21.7096 8.14024C23.2974 9.68961 24.1105 11.828 24.1361 14.4914C24.1425 14.7218 23.9632 14.9075 23.7327 14.9075C23.7391 14.9075 23.7391 14.9075 23.7327 14.9075Z" fill="white"/>
    <path d="M17.1897 18.3967C17.1897 18.3967 17.7595 18.4479 18.0668 18.0702L18.6622 17.3211C18.9503 16.9498 19.6482 16.7129 20.3268 17.0906C20.7046 17.3019 21.3896 17.7244 21.8122 18.0382C22.2667 18.3711 23.1887 19.1394 23.1951 19.1458C23.6368 19.5171 23.7393 20.0613 23.4384 20.6439C23.4384 20.6439 23.4384 20.6503 23.4384 20.6567C23.131 21.2009 22.7149 21.7131 22.1963 22.1869C22.1899 22.1869 22.1899 22.1933 22.1835 22.1933C21.7545 22.5518 21.332 22.7567 20.9222 22.8015C20.871 22.8143 20.8134 22.8143 20.7366 22.8143C20.5573 22.8143 20.378 22.7887 20.1988 22.7311L20.186 22.7119C19.5457 22.5326 18.4829 22.0844 16.7159 21.1049C15.5635 20.471 14.6095 19.8244 13.7964 19.1778C13.3675 18.8385 12.9321 18.4607 12.484 18.0126C12.4711 17.9997 12.4519 17.9805 12.4391 17.9677C12.4263 17.9549 12.4071 17.9357 12.3943 17.9229C12.3815 17.9101 12.3623 17.8909 12.3495 17.8781C12.3367 17.8653 12.3175 17.8461 12.3047 17.8333C11.8629 17.3851 11.4788 16.9498 11.1395 16.5208C10.4928 15.7141 9.84619 14.7538 9.21235 13.6013C8.2328 11.8279 7.78463 10.7651 7.60537 10.1313L7.58616 10.1185C7.52854 9.9392 7.50293 9.75993 7.50293 9.58067C7.50293 9.50384 7.50293 9.44622 7.51573 9.395C7.56695 8.97885 7.77183 8.56269 8.12396 8.13374C8.12396 8.12733 8.13036 8.12733 8.13036 8.12093C8.60413 7.59594 9.11632 7.18619 9.66052 6.87888C9.66052 6.87888 9.66692 6.87888 9.67332 6.87888C10.2495 6.57797 10.7937 6.6804 11.1715 7.12217C11.1715 7.12217 11.9462 8.05051 12.2791 8.50507C12.5928 8.93403 13.0153 9.61268 13.2266 9.99042C13.6044 10.6691 13.3675 11.3669 12.9961 11.655L12.2471 12.2504C11.8693 12.5578 11.9205 13.1276 11.9205 13.1276C11.9205 13.1276 13.0282 17.3403 17.1897 18.3967Z" fill="white"/>
</svg>
