<svg width="31" height="27" viewBox="0 0 31 27" fill="none" xmlns="http://www.w3.org/2000/svg">
    <path d="M30.258 6.06128C30.1237 9.00844 28.0642 13.0457 24.0834 18.1691C19.9682 23.5204 16.4858 26.1969 13.6359 26.1969C11.8723 26.1969 10.3793 24.5676 9.15876 21.3071C8.34508 18.319 7.52946 15.3329 6.71578 12.3449C5.81061 9.0863 4.83925 7.45505 3.79977 7.45505C3.57396 7.45505 2.77975 7.93197 1.42297 8.88191L0 7.04626C1.49304 5.73425 2.96662 4.4203 4.41684 3.10439C6.41016 1.3836 7.90515 0.476482 8.90376 0.384992C11.2591 0.159186 12.7094 1.77097 13.2544 5.2184C13.8423 8.94031 14.2491 11.2548 14.4769 12.16C15.1562 15.2473 15.9037 16.789 16.7194 16.789C17.354 16.789 18.3058 15.7865 19.575 13.7854C20.8423 11.7823 21.5216 10.2582 21.6131 9.21283C21.7942 7.48425 21.1148 6.61801 19.575 6.61801C18.8489 6.61801 18.1015 6.78347 17.3345 7.11439C18.8217 2.2401 21.6637 -0.128911 25.8606 0.00540496C28.9713 0.0968952 30.4371 2.11552 30.258 6.06128Z" fill="white"/>
</svg>
