<svg width="30" height="30" viewBox="0 0 30 30" fill="none" xmlns="http://www.w3.org/2000/svg">
    <path d="M15 30C23.2742 30 30 23.2742 30 15C30 6.72581 23.2742 0 15 0C6.72581 0 0 6.72581 0 15C0 23.2742 6.72581 30 15 30ZM3.3871 20.9758L9.48387 20.9274C10.1613 23.371 11.2984 25.7419 12.8468 27.871C8.70968 27.1935 5.25 24.5564 3.3871 20.9758ZM11.0323 10.8871H18.629C19.1855 13.5484 19.1855 16.2823 18.6774 18.9436L11.0323 18.9919C10.4758 16.3065 10.4758 13.5484 11.0323 10.8871ZM14.8306 27.3145C13.3065 25.3548 12.1935 23.2016 11.5161 20.9274L18.1694 20.879C17.4677 23.1532 16.3548 25.3306 14.8306 27.3145ZM16.7661 27.9435C18.3629 25.7661 19.5 23.371 20.1774 20.8548L26.6855 20.8065C24.7984 24.6048 21.121 27.3387 16.7661 27.9435ZM28.0645 15C28.0645 16.3548 27.8468 17.6613 27.4839 18.871L20.6371 18.9194C21.121 16.2581 21.0968 13.5484 20.5887 10.8871H27.3871C27.8226 12.1694 28.0645 13.5726 28.0645 15ZM26.5645 8.95161H20.129C19.4274 6.53226 18.3145 4.18548 16.7661 2.05645C21.0484 2.6371 24.6532 5.27419 26.5645 8.95161ZM18.121 8.95161H11.5403C12.2419 6.72581 13.3306 4.62097 14.8306 2.68548C16.3306 4.62097 17.4194 6.72581 18.121 8.95161ZM12.8468 2.12903C11.3226 4.23387 10.2097 6.53226 9.53226 8.95161H3.43548C5.29839 5.39516 8.73387 2.80645 12.8468 2.12903ZM9.07258 10.8871C8.56452 13.5726 8.56452 16.3065 9.04839 18.9919L2.58871 19.0403C2.15323 17.7581 1.93548 16.4032 1.93548 15C1.93548 13.5726 2.17742 12.1694 2.6129 10.8871H9.07258Z" fill="white"/>
</svg>
