<svg width="30" height="22" viewBox="0 0 30 22" fill="none" xmlns="http://www.w3.org/2000/svg">
    <path fill-rule="evenodd" clip-rule="evenodd" d="M26.7379 1.14055C28.0229 1.48651 29.0361 2.49969 29.3821 3.78469C30.0246 6.13229 29.9999 11.0252 29.9999 11.0252C29.9999 11.0252 29.9999 15.8934 29.3821 18.241C29.0361 19.526 28.0229 20.5391 26.7379 20.8851C24.3903 21.5029 14.9999 21.5029 14.9999 21.5029C14.9999 21.5029 5.63424 21.5029 3.26193 20.8604C1.97693 20.5144 0.963752 19.5013 0.61779 18.2163C0 15.8934 0 11.0005 0 11.0005C0 11.0005 0 6.13229 0.61779 3.78469C0.963752 2.49969 2.00164 1.4618 3.26193 1.11584C5.60953 0.498047 14.9999 0.498047 14.9999 0.498047C14.9999 0.498047 24.3903 0.498047 26.7379 1.14055ZM19.8187 11.0005L12.0098 15.498V6.50296L19.8187 11.0005Z" fill="white"/>
</svg>
